<mxfile host="Electron" modified="2023-10-22T18:49:30.167Z" agent="Mozilla/5.0 (Macintosh; Intel Mac OS X 10_15_7) AppleWebKit/537.36 (KHTML, like Gecko) draw.io/22.0.2 Chrome/114.0.5735.289 Electron/25.8.4 Safari/537.36" etag="EWdNZl7T_J1n2UtEHTii" version="22.0.2" type="device">
  <diagram name="PÃ¡gina-1" id="Vxan32LNy14_hoDzjvCH">
    <mxGraphModel dx="1368" dy="887" grid="1" gridSize="10" guides="1" tooltips="1" connect="1" arrows="1" fold="1" page="1" pageScale="1" pageWidth="1169" pageHeight="827" math="0" shadow="0">
      <root>
        <mxCell id="0" />
        <mxCell id="1" parent="0" />
        <mxCell id="RQxE2vT2TZe3DlvVdF_B-2" value="Usuario" style="shape=umlActor;verticalLabelPosition=bottom;verticalAlign=top;html=1;outlineConnect=0;fillColor=#647687;fontColor=#ffffff;strokeColor=#314354;" vertex="1" parent="1">
          <mxGeometry x="10" y="120" width="30" height="60" as="geometry" />
        </mxCell>
        <mxCell id="RQxE2vT2TZe3DlvVdF_B-21" value="" style="group" vertex="1" connectable="0" parent="1">
          <mxGeometry x="250" y="298" width="838.2309090909091" height="482" as="geometry" />
        </mxCell>
        <mxCell id="RQxE2vT2TZe3DlvVdF_B-20" value="Cloud&#xa;Functions" style="sketch=0;html=1;verticalAlign=top;labelPosition=center;verticalLabelPosition=bottom;align=center;spacingTop=-6;fontSize=11;fontStyle=1;fontColor=#999999;shape=image;aspect=fixed;imageAspect=0;image=data:image/svg+xml,PHN2ZyB4bWxucz0iaHR0cDovL3d3dy53My5vcmcvMjAwMC9zdmciIHhtbG5zOnY9Imh0dHBzOi8vdmVjdGEuaW8vbmFubyIgd2lkdGg9IjIwIiBoZWlnaHQ9IjE5Ljk4OTk5OTc3MTExODE2NCIgdmlld0JveD0iMCAwIDIwIDE5Ljk4OTk5OTc3MTExODE2NCI+JiN4YTsJPHN0eWxlIHR5cGU9InRleHQvY3NzIj4mI3hhOwkuc3Qwe2ZpbGw6IzQyODVmNDt9JiN4YTsJLnN0MXtmaWxsOiM2NjlkZjY7fSYjeGE7CS5zdDJ7ZmlsbDojYWVjYmZhO30mI3hhOwk8L3N0eWxlPiYjeGE7CTxwYXRoIGNsYXNzPSJzdDEiIGQ9Ik0zIDMuOTlMMCA2LjQydjcuMTNsMyAyLjQ0eiIvPiYjeGE7CTxwYXRoIGNsYXNzPSJzdDAiIGQ9Ik0zIDMuOTlsLTMgNCAzLTJ6bS0zIDhsMyA0di0yeiIvPiYjeGE7CTxwYXRoIGNsYXNzPSJzdDIiIGQ9Ik0wIDE1Ljk5bDQgNCAyLTItNi02em0uMDEtOEw1Ljk5IDJsLTItMkwwIDMuOTl6Ii8+JiN4YTsJPHBhdGggY2xhc3M9InN0MSIgZD0iTTE3IDE2bDMtMi40MlY2LjQ0TDE3IDR6Ii8+JiN4YTsJPHBhdGggY2xhc3M9InN0MCIgZD0iTTE3IDE2bDMtNC0zIDJ6bTMtOGwtMy00djJ6Ii8+JiN4YTsJPGcgY2xhc3M9InN0MiI+JiN4YTsJCTxwYXRoIGQ9Ik0yMCA0bC00LTQtMiAyIDYgNnptLS4wMSA4bC01Ljk4IDUuOTkgMiAyTDIwIDE2eiIvPiYjeGE7CQk8Y2lyY2xlIGN4PSI2IiBjeT0iOS45OSIgcj0iMSIvPiYjeGE7CQk8Y2lyY2xlIGN4PSIxMCIgY3k9IjkuOTkiIHI9IjEiLz4mI3hhOwkJPGNpcmNsZSBjeD0iMTMuOTkiIGN5PSI5Ljk5IiByPSIxIi8+JiN4YTsJPC9nPiYjeGE7PC9zdmc+;" vertex="1" parent="RQxE2vT2TZe3DlvVdF_B-21">
          <mxGeometry x="59" y="17" width="42" height="34" as="geometry" />
        </mxCell>
        <mxCell id="RQxE2vT2TZe3DlvVdF_B-78" value="" style="shape=image;verticalLabelPosition=bottom;labelBackgroundColor=default;verticalAlign=top;aspect=fixed;imageAspect=0;image=data:image/jpeg,/9j/4AAQSkZJRgABAQAAAQABAAD/2wCEAAkGBxEQEA8RDw8RDw8OEQ4PEBAQEBARDg4OFhIYFxcSFhYZHyohGRsmHxcUIjMiJiwtMDAwGCE1OjUuOSovMC8BCgoKDw4PGxERGzkfISQvLy0tNC0vLy8tLy8vLS8yLy0vLy0tLy0vLS8vLy8tLzEvLy8vLS8vLy8vLy8vLy8vL//AABEIAOsA1gMBIgACEQEDEQH/xAAcAAEAAgMBAQEAAAAAAAAAAAAAAQIEBQcGAwj/xABKEAACAQMAAwoHDAgGAwAAAAAAAQIDBBEFITEGEjJBUVJhcYGRBxMUk6Gx0hUWIkJTVGJydLPR4RczNIKSosHwIyQ1c6OyQ2Nk/8QAGwEBAAIDAQEAAAAAAAAAAAAAAAECAwQFBgf/xAA0EQACAQICBgkDBAMBAAAAAAAAAQIDEQQhBRIxUWGRFDJBcYGhscHhExXwIlKi0SMz8UL/2gAMAwEAAhEDEQA/AO4gAAAAAAAAHyuK8KcXOpKMIR1uUmlFLrZac1FOUnhRTbb2JLazk26PTk7uq3lqlBvxdPiS5zXOfozgzUaLqPcjDWrKmt7PWaR3eUYaqFOVZ86T8XDsysvuR5+73bXk+DKnSX0IJvHXPJ5tsvUtqkY76VKpGHOlCSh3tYOhHD049l+858sRUl227jMr6fu58K6rfuzlBd0cGHUvKsuFWqS+tUm/Wz4NlWzNqpbF5Ixaze1+bLSk3tbZCqNbJNdTaKtlWwQZMNI148GvWj9WpUj6mZlDdPe0+DdVf38VP+6Zp2yGVcIvaiynLf5nr7DwhXMGvGwp1o8erxdR9q1fyntdA7p7e8+DTk41sZdGpqnjjceKS6u3Bxlkxm4tSi3GUWnGUW1KMlsaa2Mw1MNCWzIzQxM47c/zefoIHjtw26l3UfE12vKKaypfLU1q32OctWV055cexObODi7M6UJqSugACpYAAAAAAAAAAAAAAAAAA0e7O4dOxrtbZKFPsnNRl6Gzk7OneEJ/5J/7lL1nMGdLBr9Hic3GdfwPfbgdCU/Fq6qRU5ylJUsrKpxi8OSXObT18i6We1ks6nrT1NcTR5fwfaQhUtVSyvGUHNSjxuMpOSl1a2uw9UaWIbdR3/EbuHSVNWOX7vNCQt6kKtKKjTrb7MVqjCqsbORNPZxYZ5Vs9v4TNIRlKlQi05U99UqY+K2sRj14y+7lPDNnRoNumrnNrpKo0g2VbDZRmYxBsqyWVYJDIbDZVsgGRo2/lb1qVaHCpTU8c5fGj1NZXad7pVFOMZReYzSlF8qaymfnlnd9zUs2Vm3tdtb/AHcTSxiVk/A3sG9qNmADRN0AAAAAAAAAAAAAAAAAA8z4Qv2J/wC7S9bOXNnU93dCdS0cacJ1JeMpvewjKcsZ24Ws509DXXzW48zV9k6WEa+n4nOxcW6mS7DFtbqpSmqlOcoTjslF4fV0roNvV3ZX0o73x2OJyjTpxm+3GrswYD0LdfNbjzFX2Sr0Ld/NLjzNX2TNJQlm7PkYI/UWSuuZgzm225NylJtttttt7W3xso2Z70Ld/NLnzFX2SHoS7+aXPmKvsl9Zbyv05bvI1zZDM6ehrlJt2tdJJtt0aiSS2tve6ka9sJp7A01tDZDZLZVsEBso2GyrYJDZ3bcv+w2f2a3+6icHbO8blv2Gy+zW/wB3E08b1V3m5hNrNqADQN4AAAAAAAAAAGl3Q6fp2cE5fDqTT3lNPDf0m+KJMYuTsiJSUVdm3nJRTcmopa228JLpZprndVZU3h14yf8A64yqLvimvSc30tpitcyzVqNrOY01qpQ6o/1eX0mvZvQwa2yfI0Z41/8Alczp73cWfOqeakV9/NnzqvmmcwbKtmTodPiY+l1OB1H392XOqeaZHv7sudU81I5c2VbHQ6fEdLqcDqfv8sudV80yPf7Zc6r5pnKmyrZHRKfEnpdTgdX9/wBZc6r5qRHv/sedV81I5QyrHRKfEdLqcDqOkN3NlOlVhGVTfTp1IRzSklvnFpHLQ2VbMtOlGn1TFUqyntDZRslsq2ZChDZVslsq2AQ2d53LvFhZv/5bd/8AFE4Kd43M/wCn2n2Wh90jSxvVTNzB9Zmf5bD+0PLYGuB5BaUr8OXydn6ETY+WQ5X3M+0Jp7GmagRm08p4aLw0rUT/AFxTXDJ+bZDoLsZugY1pcb5a9q2mSdunUjUipRzTNZpp2YABcgxNI3kaFKdWfBpxcnyvkiulvC7TkGkr6derOpUeZzeeiK4oroR7Twk3jUKNFP8AWSlUn9WOqKfa2/3TwLOlhKdo62/0Obi6l5au71DKtktlWzbNQhsq2S2Q2AQ2Q2GyrZBIbKMMqwSGQw2Q2AGyjYbKtkEhsq2GyrYAbKhgAHeNzP8Ap9p9lofdI4Od53ORxYWie1WlvnzUTRx3U5+huYPrMoRkEZPn/Yd8EZGSCpYvSqb2SkuLb08puU+NGhybawqb6C6Mr+/QdfRFa0pU325r39uRr4iGSkZQAO8ahy3d7c7+9muKlCnSXdv3/wB/QecbM/Tlbf3VxLlrVcfVU2l6EjXNnapq0EuBxajvNviGyrYbIbLlA2VbDZVsgkNlGyWyrBIZVsMNgENlWyWyjZAIbKtktlWwSGyrYbIAAAS73qS42+QgGTo2xlcVqVCHCqzjTX0U9supLL7DvldKFLex1JRjCK5EljHceR8Hu5OVsvKbiOK9SO9p03to03tb5Jv0LVxtHpL2vvpYWyPp6ThaXxihTdnvS73/AF+bTq4Gg1m/xGPkjIyRk8YdgEZBUqSSZ2ip65x6EzXmVo6WKiXLvvVn+hs4Cpq4iHfbnl7lK0bwZuQAevOccLrT30pPnSk+95Pm2WrR3spLmuS7ngo2dw4YbKthsq2AGyjZLZRgBshkpNtJJttpJJNtt6kkuNnR9y24WEFGrexVSo8ONF66dP6/Pl0bF07THUqxpq7MlOm5uyPC6O0Lc3OuhQnUjz8KMP45YXpN7T8Hd7JZcqMOiVSef5Ys6fO4hH4K4tSS2LoPi758UV3nHraYpwla6XNnRp4BWzz8jnL8G958rbecq+wV/Rte/K23nK3sHSPLpc31jy6XN9Zh++U9/wDFmT7et3mc2/RrefK23nKvsFX4NL35W285W9g6X5dLm+seXS5vrH3ynv8A4sdAW7zOZ/ozvflbbzlb2B+jO9+VtvOVvYOl+Xy5vrHl8ub6yPvtPf8AxZPQFu8znVr4MLhv/FuKMFy01Oq+5qJ7DQG461smppOrVj/5auG4fVWyPXt6TZyvpcSS7zGq1pS4Tb/vkNevpyLVo3fkv78jJTwKi729zKu7zPwYbON/gYORkg87XrzrS1p/C7joQgoqyGSAQa5cZIBGStywPtZy/wASHWvTqPhk+ln+sh9ZesvRf+SHevUiSyZ6EAHuDknFNO0t5c3MObWq4+rv216MGvbPRbv7beX1V8VWFKqv4d4/TBnnGzs03eKfA41RWk1xIbKtktlGXKBlWGSottKKzKTSS5ZPUkAe98GugU83lWOcOUKCezK1Sq+uK6pdB7i7uPix7WLK2jb0KdOPBowjBdLSxl9b19phHk9L4yXVi9vp8/2d/CUFGPd6gAHnTeABGQCSMkEZIuTYnJGSMkZK3JsSVyMkFbkgjIIKFgQCMlSRkjIyRkrckZMjRyzVh0Z9CZi5NjoWGZSlyau1v8jYwMNfEU48U+WfsUrPVg2bgAHtjlHgvCjZ/Bt66XBc6Mv3lvo+qXec+bO26c0crm3q0Xq8ZH4Mn8Wa1xl2NI4ncUpU5ShOLjOEnCUXtjJPDR0sJO8NXcc3FwtPW3nzbIYZVm0awbMzQizdWqex3FBdnjImE2Zugv2u0+0W/wB5ErLYy0Osjt99wH2GuNjf8A1x4TSf+7wXqz0lHqgAg5xmGSMjJXJVsmxOSMkEZK3JsSRkgjJW5YEAgo2SkSRkjJGSpIyRkZIyVbLDJGSSCrZJBvdF0t7TWdsvhPt/LBp7Shv5xjxPX1I9Kd3QlC8pVn2fpXvy2eLNTFzyUQAD0hoA8Xu33KO4zXt0vHpYnDUlWilqafOWzpXUj2gLwm4O6KTgpqzPz9VhKEnGcXCcXiUZJxlF8jT1oo2dx0poS3ul/j0YVGlhT1xqJcinHDS7TQ1fB1ZyeVO4guSNSLX80Wzeji4tZ5GjLCT7HfyOVNmZoF/5u0+02/3sTo36N7P5W5/jpewfS28H1rTnTqRqV99TqQqxTlT3u+hJSSfwNmoPFU2mvYRw0008uZ6e/wCB3GtybLSHANZk8ZpT/f4L3O7R6oIyMkHMM4yQRkgq2SSQTBZaXKbP3Oh095sYfB1a6bhbLe/gpOpGG01RBtfc6HLLvQ9zYfT7/wAjO9EYjhz+CqxEPxGpyRk23uZD6fevwHuZDln3r8CPs+I4c/gnpNP8RqMlcm49y6fLLvX4D3Lp8s+/8iv2fE8OfwT0mn+I02SDde5VP6XevwHuTT5Zd6/Aj7NieHP4J6VTNKTCLbSSy3sS2s3K0VT6X14/AyaNvCHBil/UvS0JWb/XJJcM36W8fIrLFxtkrny0daeLjr4T29XIZgB6WjSjSgoQySNGUnJ3YABkKgAAAAAAAAGLpHgPrRq8m00h+rfYarJ5vSz/AM/gvc3cP1RkjIyVOWZySCAVuWCeNm1H18qqc9958clckxqzj1W13Nr0DintPv5XU577yPK6nPfefDISbeEm29iWtsdIq/vfNjUjuPt5ZU577x5ZU+UfeJWNVLO87mm+4xialTEQ67ku9yXqTGMHss+R9/LKnyj7ze2zbhBvW3FNvleDzZ6S0/V0/qQ9R1dCVJznPWbeS2tvt4s1sXFKKsu0+wAPRmiAAAAAAAAAAAAAAAAAAYmkf1b60ak3dzDfQlHja/M0bPN6Yi1VUuxr0fyjdwzvFoZIBGTkXNoEZGSMlWyRkjJGSMlGybE5NvoiklBT+NPOvkw8Y9BpjbaIrre+Le1N46U9f4nS0Q4LErW3O3fl52vYwYpPUyNoafTNBJxmtWeF0viNwaTS1ypNRi8qOW3xZ5Dt6YcFhpKfh3/8vfhc1MMn9RWMA9JbcCH1Ieo87SpuclFbW/7Z6aMcJJbEkl1HP0DB3nPsyXjtM+MeSRYAHozRAAAAAAAAAAAAAAAAAABrr6zzmcFr+MuU2IMOIw8K0NSfynvX5weRaE3F3R5tlcm9uLSE9q18qNfV0ZNcFqfoPM4jRdem/wBK11w28tvK5vwxEJbcjBIyXqUZR4UWuvPrPmcud4u0lZ8TYWewnJAIKXLAA+tO2qS4MG+n82TCDqO0Vrdyv6Bu23Iq682sOTa5G9RSEW2kllvYltNjR0TJ8OSS5Fr9JsqFtGC+CscvG2dehonEVneq9VcXd8uzx2cTVniYRyjmY+j7LxazLXN9yRngHpqNGFGChBWSNCc3J3YABlKgAAAAAAAAAAAAAAAAAAAAAAAA+U6MXtin2ZPqA1fJgx/IqfMQ8jp8xesyAYvoUv2Lkv6La8t584U1HYkupJH0AMqyVioAAAAAAAAAAAAAAAAAAAAAAAAAAABDKMAvkrvz5sqwD6+MHjD4sgA+3jB4w+AAMjxg8YfAlAH335bJ8EWQB9gfNF0ASAAAAAAAAAAAD//Z;" vertex="1" parent="RQxE2vT2TZe3DlvVdF_B-21">
          <mxGeometry x="122.67999999999995" y="17" width="27.32" height="30" as="geometry" />
        </mxCell>
        <mxCell id="RQxE2vT2TZe3DlvVdF_B-91" value="" style="group" vertex="1" connectable="0" parent="RQxE2vT2TZe3DlvVdF_B-21">
          <mxGeometry x="-240" y="-158" width="1078.230909090909" height="640" as="geometry" />
        </mxCell>
        <mxCell id="RQxE2vT2TZe3DlvVdF_B-19" value="&lt;br&gt;&lt;br&gt;&lt;br&gt;&lt;br&gt;&lt;br&gt;Api idealista.com" style="rounded=1;whiteSpace=wrap;html=1;" vertex="1" parent="RQxE2vT2TZe3DlvVdF_B-91">
          <mxGeometry x="248.1818181818182" y="138" width="152.72727272727272" height="110" as="geometry" />
        </mxCell>
        <mxCell id="RQxE2vT2TZe3DlvVdF_B-34" value="" style="group" vertex="1" connectable="0" parent="RQxE2vT2TZe3DlvVdF_B-91">
          <mxGeometry x="448.6363636363636" y="318" width="114.54545454545453" height="120" as="geometry" />
        </mxCell>
        <mxCell id="RQxE2vT2TZe3DlvVdF_B-32" value="" style="whiteSpace=wrap;html=1;aspect=fixed;" vertex="1" parent="RQxE2vT2TZe3DlvVdF_B-34">
          <mxGeometry width="114.54545454545453" height="114.54545454545453" as="geometry" />
        </mxCell>
        <mxCell id="RQxE2vT2TZe3DlvVdF_B-33" value="BigQuery" style="sketch=0;html=1;verticalAlign=top;labelPosition=center;verticalLabelPosition=bottom;align=center;spacingTop=-6;fontSize=11;fontStyle=1;fontColor=#999999;shape=image;aspect=fixed;imageAspect=0;image=data:image/svg+xml,PHN2ZyB4bWxucz0iaHR0cDovL3d3dy53My5vcmcvMjAwMC9zdmciIHhtbG5zOnY9Imh0dHBzOi8vdmVjdGEuaW8vbmFubyIgd2lkdGg9IjIwLjAwMTA0NTIyNzA1MDc4IiBoZWlnaHQ9IjIwLjAwMTA0NTIyNzA1MDc4IiBmaWxsLXJ1bGU9ImV2ZW5vZGQiIHZpZXdCb3g9IjAgMCAyMC4wMDEwNDUyMjcwNTA3OCAyMC4wMDEwNDUyMjcwNTA3OCI+JiN4YTsJPHN0eWxlIHR5cGU9InRleHQvY3NzIj4mI3hhOwkuc3Qwe2ZpbGw6I2FlY2JmYTt9JiN4YTsJLnN0MXtmaWxsOiM2NjlkZjY7fSYjeGE7CS5zdDJ7ZmlsbDojNDI4NWY0O30mI3hhOwk8L3N0eWxlPiYjeGE7CTxwYXRoIGNsYXNzPSJzdDAiIGQ9Ik00LjczIDguODN2Mi42M2E0LjkxIDQuOTEgMCAwIDAgMS43MSAxLjc0VjguODN6Ii8+JiN4YTsJPHBhdGggY2xhc3M9InN0MSIgZD0iTTcuODkgNi40MXY3LjUzQTcuNjIgNy42MiAwIDAgMCA5IDE0YTggOCAwIDAgMCAxIDBWNi40MXoiLz4mI3hhOwk8cGF0aCBjbGFzcz0ic3QwIiBkPSJNMTEuNjQgOS44NnYzLjI5YTUgNSAwIDAgMCAxLjctMS44MlY5Ljg2eiIvPiYjeGE7CTxwYXRoIGNsYXNzPSJzdDIiIGQ9Ik0xNS43NCAxNC4zMmwtMS40MiAxLjQyYS40Mi40MiAwIDAgMCAwIC42bDMuNTQgMy41NGEuNDIuNDIgMCAwIDAgLjU5IDBsMS40My0xLjQzYS40Mi40MiAwIDAgMCAwLS41OWwtMy41NC0zLjU0YS40Mi40MiAwIDAgMC0uNiAwIi8+JiN4YTsJPHBhdGggY2xhc3M9InN0MSIgZD0iTTkgMGE5IDkgMCAxIDAgMCAxOEE5IDkgMCAxIDAgOSAwbTAgMTUuNjlhNi42OCA2LjY4IDAgMCAxIC4wMDctMTMuMzYgNi42OCA2LjY4IDAgMCAxIDQuNzI3IDExLjQwM0E2LjY4IDYuNjggMCAwIDEgOSAxNS42OSIvPiYjeGE7PC9zdmc+;" vertex="1" parent="RQxE2vT2TZe3DlvVdF_B-34">
          <mxGeometry x="38.89772727272727" y="33" width="36.75" height="36.75" as="geometry" />
        </mxCell>
        <mxCell id="RQxE2vT2TZe3DlvVdF_B-84" style="edgeStyle=orthogonalEdgeStyle;rounded=0;orthogonalLoop=1;jettySize=auto;html=1;entryX=0.5;entryY=0;entryDx=0;entryDy=0;" edge="1" parent="RQxE2vT2TZe3DlvVdF_B-91" source="RQxE2vT2TZe3DlvVdF_B-19" target="RQxE2vT2TZe3DlvVdF_B-32">
          <mxGeometry relative="1" as="geometry" />
        </mxCell>
        <mxCell id="RQxE2vT2TZe3DlvVdF_B-93" value="" style="shape=image;verticalLabelPosition=bottom;labelBackgroundColor=default;verticalAlign=top;aspect=fixed;imageAspect=0;image=data:image/jpeg,/9j/4AAQSkZJRgABAQAAAQABAAD/2wCEAAkGBxEQEA8RDw8RDw8OEQ4PEBAQEBARDg4OFhIYFxcSFhYZHyohGRsmHxcUIjMiJiwtMDAwGCE1OjUuOSovMC8BCgoKDw4PGxERGzkfISQvLy0tNC0vLy8tLy8vLS8yLy0vLy0tLy0vLS8vLy8tLzEvLy8vLS8vLy8vLy8vLy8vL//AABEIAOsA1gMBIgACEQEDEQH/xAAcAAEAAgMBAQEAAAAAAAAAAAAAAQIEBQcGAwj/xABKEAACAQMAAwoHDAgGAwAAAAAAAQIDBBEFITEGEjJBUVJhcYGRBxMUk6Gx0hUWIkJTVGJydLPR4RczNIKSosHwIyQ1c6OyQ2Nk/8QAGwEBAAIDAQEAAAAAAAAAAAAAAAECAwQFBgf/xAA0EQACAQICBgkDBAMBAAAAAAAAAQIDEQQhBRIxUWGRFDJBcYGhscHhExXwIlKi0SMz8UL/2gAMAwEAAhEDEQA/AO4gAAAAAAAAHyuK8KcXOpKMIR1uUmlFLrZac1FOUnhRTbb2JLazk26PTk7uq3lqlBvxdPiS5zXOfozgzUaLqPcjDWrKmt7PWaR3eUYaqFOVZ86T8XDsysvuR5+73bXk+DKnSX0IJvHXPJ5tsvUtqkY76VKpGHOlCSh3tYOhHD049l+858sRUl227jMr6fu58K6rfuzlBd0cGHUvKsuFWqS+tUm/Wz4NlWzNqpbF5Ixaze1+bLSk3tbZCqNbJNdTaKtlWwQZMNI148GvWj9WpUj6mZlDdPe0+DdVf38VP+6Zp2yGVcIvaiynLf5nr7DwhXMGvGwp1o8erxdR9q1fyntdA7p7e8+DTk41sZdGpqnjjceKS6u3Bxlkxm4tSi3GUWnGUW1KMlsaa2Mw1MNCWzIzQxM47c/zefoIHjtw26l3UfE12vKKaypfLU1q32OctWV055cexObODi7M6UJqSugACpYAAAAAAAAAAAAAAAAAA0e7O4dOxrtbZKFPsnNRl6Gzk7OneEJ/5J/7lL1nMGdLBr9Hic3GdfwPfbgdCU/Fq6qRU5ylJUsrKpxi8OSXObT18i6We1ks6nrT1NcTR5fwfaQhUtVSyvGUHNSjxuMpOSl1a2uw9UaWIbdR3/EbuHSVNWOX7vNCQt6kKtKKjTrb7MVqjCqsbORNPZxYZ5Vs9v4TNIRlKlQi05U99UqY+K2sRj14y+7lPDNnRoNumrnNrpKo0g2VbDZRmYxBsqyWVYJDIbDZVsgGRo2/lb1qVaHCpTU8c5fGj1NZXad7pVFOMZReYzSlF8qaymfnlnd9zUs2Vm3tdtb/AHcTSxiVk/A3sG9qNmADRN0AAAAAAAAAAAAAAAAAA8z4Qv2J/wC7S9bOXNnU93dCdS0cacJ1JeMpvewjKcsZ24Ws509DXXzW48zV9k6WEa+n4nOxcW6mS7DFtbqpSmqlOcoTjslF4fV0roNvV3ZX0o73x2OJyjTpxm+3GrswYD0LdfNbjzFX2Sr0Ld/NLjzNX2TNJQlm7PkYI/UWSuuZgzm225NylJtttttt7W3xso2Z70Ld/NLnzFX2SHoS7+aXPmKvsl9Zbyv05bvI1zZDM6ehrlJt2tdJJtt0aiSS2tve6ka9sJp7A01tDZDZLZVsEBso2GyrYJDZ3bcv+w2f2a3+6icHbO8blv2Gy+zW/wB3E08b1V3m5hNrNqADQN4AAAAAAAAAAGl3Q6fp2cE5fDqTT3lNPDf0m+KJMYuTsiJSUVdm3nJRTcmopa228JLpZprndVZU3h14yf8A64yqLvimvSc30tpitcyzVqNrOY01qpQ6o/1eX0mvZvQwa2yfI0Z41/8Alczp73cWfOqeakV9/NnzqvmmcwbKtmTodPiY+l1OB1H392XOqeaZHv7sudU81I5c2VbHQ6fEdLqcDqfv8sudV80yPf7Zc6r5pnKmyrZHRKfEnpdTgdX9/wBZc6r5qRHv/sedV81I5QyrHRKfEdLqcDqOkN3NlOlVhGVTfTp1IRzSklvnFpHLQ2VbMtOlGn1TFUqyntDZRslsq2ZChDZVslsq2AQ2d53LvFhZv/5bd/8AFE4Kd43M/wCn2n2Wh90jSxvVTNzB9Zmf5bD+0PLYGuB5BaUr8OXydn6ETY+WQ5X3M+0Jp7GmagRm08p4aLw0rUT/AFxTXDJ+bZDoLsZugY1pcb5a9q2mSdunUjUipRzTNZpp2YABcgxNI3kaFKdWfBpxcnyvkiulvC7TkGkr6derOpUeZzeeiK4oroR7Twk3jUKNFP8AWSlUn9WOqKfa2/3TwLOlhKdo62/0Obi6l5au71DKtktlWzbNQhsq2S2Q2AQ2Q2GyrZBIbKMMqwSGQw2Q2AGyjYbKtkEhsq2GyrYAbKhgAHeNzP8Ap9p9lofdI4Od53ORxYWie1WlvnzUTRx3U5+huYPrMoRkEZPn/Yd8EZGSCpYvSqb2SkuLb08puU+NGhybawqb6C6Mr+/QdfRFa0pU325r39uRr4iGSkZQAO8ahy3d7c7+9muKlCnSXdv3/wB/QecbM/Tlbf3VxLlrVcfVU2l6EjXNnapq0EuBxajvNviGyrYbIbLlA2VbDZVsgkNlGyWyrBIZVsMNgENlWyWyjZAIbKtktlWwSGyrYbIAAAS73qS42+QgGTo2xlcVqVCHCqzjTX0U9supLL7DvldKFLex1JRjCK5EljHceR8Hu5OVsvKbiOK9SO9p03to03tb5Jv0LVxtHpL2vvpYWyPp6ThaXxihTdnvS73/AF+bTq4Gg1m/xGPkjIyRk8YdgEZBUqSSZ2ip65x6EzXmVo6WKiXLvvVn+hs4Cpq4iHfbnl7lK0bwZuQAevOccLrT30pPnSk+95Pm2WrR3spLmuS7ngo2dw4YbKthsq2AGyjZLZRgBshkpNtJJttpJJNtt6kkuNnR9y24WEFGrexVSo8ONF66dP6/Pl0bF07THUqxpq7MlOm5uyPC6O0Lc3OuhQnUjz8KMP45YXpN7T8Hd7JZcqMOiVSef5Ys6fO4hH4K4tSS2LoPi758UV3nHraYpwla6XNnRp4BWzz8jnL8G958rbecq+wV/Rte/K23nK3sHSPLpc31jy6XN9Zh++U9/wDFmT7et3mc2/RrefK23nKvsFX4NL35W285W9g6X5dLm+seXS5vrH3ynv8A4sdAW7zOZ/ozvflbbzlb2B+jO9+VtvOVvYOl+Xy5vrHl8ub6yPvtPf8AxZPQFu8znVr4MLhv/FuKMFy01Oq+5qJ7DQG461smppOrVj/5auG4fVWyPXt6TZyvpcSS7zGq1pS4Tb/vkNevpyLVo3fkv78jJTwKi729zKu7zPwYbON/gYORkg87XrzrS1p/C7joQgoqyGSAQa5cZIBGStywPtZy/wASHWvTqPhk+ln+sh9ZesvRf+SHevUiSyZ6EAHuDknFNO0t5c3MObWq4+rv216MGvbPRbv7beX1V8VWFKqv4d4/TBnnGzs03eKfA41RWk1xIbKtktlGXKBlWGSottKKzKTSS5ZPUkAe98GugU83lWOcOUKCezK1Sq+uK6pdB7i7uPix7WLK2jb0KdOPBowjBdLSxl9b19phHk9L4yXVi9vp8/2d/CUFGPd6gAHnTeABGQCSMkEZIuTYnJGSMkZK3JsSVyMkFbkgjIIKFgQCMlSRkjIyRkrckZMjRyzVh0Z9CZi5NjoWGZSlyau1v8jYwMNfEU48U+WfsUrPVg2bgAHtjlHgvCjZ/Bt66XBc6Mv3lvo+qXec+bO26c0crm3q0Xq8ZH4Mn8Wa1xl2NI4ncUpU5ShOLjOEnCUXtjJPDR0sJO8NXcc3FwtPW3nzbIYZVm0awbMzQizdWqex3FBdnjImE2Zugv2u0+0W/wB5ErLYy0Osjt99wH2GuNjf8A1x4TSf+7wXqz0lHqgAg5xmGSMjJXJVsmxOSMkEZK3JsSRkgjJW5YEAgo2SkSRkjJGSpIyRkZIyVbLDJGSSCrZJBvdF0t7TWdsvhPt/LBp7Shv5xjxPX1I9Kd3QlC8pVn2fpXvy2eLNTFzyUQAD0hoA8Xu33KO4zXt0vHpYnDUlWilqafOWzpXUj2gLwm4O6KTgpqzPz9VhKEnGcXCcXiUZJxlF8jT1oo2dx0poS3ul/j0YVGlhT1xqJcinHDS7TQ1fB1ZyeVO4guSNSLX80Wzeji4tZ5GjLCT7HfyOVNmZoF/5u0+02/3sTo36N7P5W5/jpewfS28H1rTnTqRqV99TqQqxTlT3u+hJSSfwNmoPFU2mvYRw0008uZ6e/wCB3GtybLSHANZk8ZpT/f4L3O7R6oIyMkHMM4yQRkgq2SSQTBZaXKbP3Oh095sYfB1a6bhbLe/gpOpGG01RBtfc6HLLvQ9zYfT7/wAjO9EYjhz+CqxEPxGpyRk23uZD6fevwHuZDln3r8CPs+I4c/gnpNP8RqMlcm49y6fLLvX4D3Lp8s+/8iv2fE8OfwT0mn+I02SDde5VP6XevwHuTT5Zd6/Aj7NieHP4J6VTNKTCLbSSy3sS2s3K0VT6X14/AyaNvCHBil/UvS0JWb/XJJcM36W8fIrLFxtkrny0daeLjr4T29XIZgB6WjSjSgoQySNGUnJ3YABkKgAAAAAAAAGLpHgPrRq8m00h+rfYarJ5vSz/AM/gvc3cP1RkjIyVOWZySCAVuWCeNm1H18qqc9958clckxqzj1W13Nr0DintPv5XU577yPK6nPfefDISbeEm29iWtsdIq/vfNjUjuPt5ZU577x5ZU+UfeJWNVLO87mm+4xialTEQ67ku9yXqTGMHss+R9/LKnyj7ze2zbhBvW3FNvleDzZ6S0/V0/qQ9R1dCVJznPWbeS2tvt4s1sXFKKsu0+wAPRmiAAAAAAAAAAAAAAAAAAYmkf1b60ak3dzDfQlHja/M0bPN6Yi1VUuxr0fyjdwzvFoZIBGTkXNoEZGSMlWyRkjJGSMlGybE5NvoiklBT+NPOvkw8Y9BpjbaIrre+Le1N46U9f4nS0Q4LErW3O3fl52vYwYpPUyNoafTNBJxmtWeF0viNwaTS1ypNRi8qOW3xZ5Dt6YcFhpKfh3/8vfhc1MMn9RWMA9JbcCH1Ieo87SpuclFbW/7Z6aMcJJbEkl1HP0DB3nPsyXjtM+MeSRYAHozRAAAAAAAAAAAAAAAAAABrr6zzmcFr+MuU2IMOIw8K0NSfynvX5weRaE3F3R5tlcm9uLSE9q18qNfV0ZNcFqfoPM4jRdem/wBK11w28tvK5vwxEJbcjBIyXqUZR4UWuvPrPmcud4u0lZ8TYWewnJAIKXLAA+tO2qS4MG+n82TCDqO0Vrdyv6Bu23Iq682sOTa5G9RSEW2kllvYltNjR0TJ8OSS5Fr9JsqFtGC+CscvG2dehonEVneq9VcXd8uzx2cTVniYRyjmY+j7LxazLXN9yRngHpqNGFGChBWSNCc3J3YABlKgAAAAAAAAAAAAAAAAAAAAAAAA+U6MXtin2ZPqA1fJgx/IqfMQ8jp8xesyAYvoUv2Lkv6La8t584U1HYkupJH0AMqyVioAAAAAAAAAAAAAAAAAAAAAAAAAAABDKMAvkrvz5sqwD6+MHjD4sgA+3jB4w+AAMjxg8YfAlAH335bJ8EWQB9gfNF0ASAAAAAAAAAAAD//Z;" vertex="1" parent="RQxE2vT2TZe3DlvVdF_B-91">
          <mxGeometry x="360.00272727272727" y="148" width="26.078181818181818" height="28.636363636363633" as="geometry" />
        </mxCell>
        <mxCell id="RQxE2vT2TZe3DlvVdF_B-92" value="Cloud&#xa;Functions" style="sketch=0;html=1;verticalAlign=top;labelPosition=center;verticalLabelPosition=bottom;align=center;spacingTop=-6;fontSize=11;fontStyle=1;fontColor=#999999;shape=image;aspect=fixed;imageAspect=0;image=data:image/svg+xml,PHN2ZyB4bWxucz0iaHR0cDovL3d3dy53My5vcmcvMjAwMC9zdmciIHhtbG5zOnY9Imh0dHBzOi8vdmVjdGEuaW8vbmFubyIgd2lkdGg9IjIwIiBoZWlnaHQ9IjE5Ljk4OTk5OTc3MTExODE2NCIgdmlld0JveD0iMCAwIDIwIDE5Ljk4OTk5OTc3MTExODE2NCI+JiN4YTsJPHN0eWxlIHR5cGU9InRleHQvY3NzIj4mI3hhOwkuc3Qwe2ZpbGw6IzQyODVmNDt9JiN4YTsJLnN0MXtmaWxsOiM2NjlkZjY7fSYjeGE7CS5zdDJ7ZmlsbDojYWVjYmZhO30mI3hhOwk8L3N0eWxlPiYjeGE7CTxwYXRoIGNsYXNzPSJzdDEiIGQ9Ik0zIDMuOTlMMCA2LjQydjcuMTNsMyAyLjQ0eiIvPiYjeGE7CTxwYXRoIGNsYXNzPSJzdDAiIGQ9Ik0zIDMuOTlsLTMgNCAzLTJ6bS0zIDhsMyA0di0yeiIvPiYjeGE7CTxwYXRoIGNsYXNzPSJzdDIiIGQ9Ik0wIDE1Ljk5bDQgNCAyLTItNi02em0uMDEtOEw1Ljk5IDJsLTItMkwwIDMuOTl6Ii8+JiN4YTsJPHBhdGggY2xhc3M9InN0MSIgZD0iTTE3IDE2bDMtMi40MlY2LjQ0TDE3IDR6Ii8+JiN4YTsJPHBhdGggY2xhc3M9InN0MCIgZD0iTTE3IDE2bDMtNC0zIDJ6bTMtOGwtMy00djJ6Ii8+JiN4YTsJPGcgY2xhc3M9InN0MiI+JiN4YTsJCTxwYXRoIGQ9Ik0yMCA0bC00LTQtMiAyIDYgNnptLS4wMSA4bC01Ljk4IDUuOTkgMiAyTDIwIDE2eiIvPiYjeGE7CQk8Y2lyY2xlIGN4PSI2IiBjeT0iOS45OSIgcj0iMSIvPiYjeGE7CQk8Y2lyY2xlIGN4PSIxMCIgY3k9IjkuOTkiIHI9IjEiLz4mI3hhOwkJPGNpcmNsZSBjeD0iMTMuOTkiIGN5PSI5Ljk5IiByPSIxIi8+JiN4YTsJPC9nPiYjeGE7PC9zdmc+;" vertex="1" parent="RQxE2vT2TZe3DlvVdF_B-91">
          <mxGeometry x="300" y="160" width="40.090909090909086" height="32.45454545454545" as="geometry" />
        </mxCell>
        <mxCell id="RQxE2vT2TZe3DlvVdF_B-22" value="&lt;br&gt;&lt;br&gt;&lt;br&gt;&lt;br&gt;&lt;br&gt;Scraping y Crawling&amp;nbsp;&lt;br&gt;fotocasa.es" style="rounded=1;whiteSpace=wrap;html=1;" vertex="1" parent="RQxE2vT2TZe3DlvVdF_B-91">
          <mxGeometry x="244.55" y="265" width="160" height="110" as="geometry" />
        </mxCell>
        <mxCell id="RQxE2vT2TZe3DlvVdF_B-37" style="edgeStyle=orthogonalEdgeStyle;rounded=0;orthogonalLoop=1;jettySize=auto;html=1;" edge="1" parent="RQxE2vT2TZe3DlvVdF_B-91" source="RQxE2vT2TZe3DlvVdF_B-22" target="RQxE2vT2TZe3DlvVdF_B-32">
          <mxGeometry relative="1" as="geometry" />
        </mxCell>
        <mxCell id="RQxE2vT2TZe3DlvVdF_B-24" value="&lt;br&gt;&lt;br&gt;&lt;br&gt;&lt;br&gt;&lt;br&gt;Scraping y Crawling&amp;nbsp;&lt;br&gt;milanuncios.es" style="rounded=1;whiteSpace=wrap;html=1;" vertex="1" parent="RQxE2vT2TZe3DlvVdF_B-91">
          <mxGeometry x="244.54999999999998" y="388" width="160" height="110" as="geometry" />
        </mxCell>
        <mxCell id="RQxE2vT2TZe3DlvVdF_B-38" style="edgeStyle=orthogonalEdgeStyle;rounded=0;orthogonalLoop=1;jettySize=auto;html=1;" edge="1" parent="RQxE2vT2TZe3DlvVdF_B-91" source="RQxE2vT2TZe3DlvVdF_B-24" target="RQxE2vT2TZe3DlvVdF_B-32">
          <mxGeometry relative="1" as="geometry" />
        </mxCell>
        <mxCell id="RQxE2vT2TZe3DlvVdF_B-26" value="&lt;br&gt;&lt;br&gt;&lt;br&gt;&lt;br&gt;&lt;br&gt;Scraping y Crawling&amp;nbsp;&lt;br&gt;habitaclia.es" style="rounded=1;whiteSpace=wrap;html=1;" vertex="1" parent="RQxE2vT2TZe3DlvVdF_B-91">
          <mxGeometry x="244.55" y="516" width="160" height="110" as="geometry" />
        </mxCell>
        <mxCell id="RQxE2vT2TZe3DlvVdF_B-83" style="edgeStyle=orthogonalEdgeStyle;rounded=0;orthogonalLoop=1;jettySize=auto;html=1;" edge="1" parent="RQxE2vT2TZe3DlvVdF_B-91" source="RQxE2vT2TZe3DlvVdF_B-26" target="RQxE2vT2TZe3DlvVdF_B-32">
          <mxGeometry relative="1" as="geometry" />
        </mxCell>
        <mxCell id="RQxE2vT2TZe3DlvVdF_B-79" value="" style="shape=image;verticalLabelPosition=bottom;labelBackgroundColor=default;verticalAlign=top;aspect=fixed;imageAspect=0;image=data:image/jpeg,/9j/4AAQSkZJRgABAQAAAQABAAD/2wCEAAkGBxEQEA8RDw8RDw8OEQ4PEBAQEBARDg4OFhIYFxcSFhYZHyohGRsmHxcUIjMiJiwtMDAwGCE1OjUuOSovMC8BCgoKDw4PGxERGzkfISQvLy0tNC0vLy8tLy8vLS8yLy0vLy0tLy0vLS8vLy8tLzEvLy8vLS8vLy8vLy8vLy8vL//AABEIAOsA1gMBIgACEQEDEQH/xAAcAAEAAgMBAQEAAAAAAAAAAAAAAQIEBQcGAwj/xABKEAACAQMAAwoHDAgGAwAAAAAAAQIDBBEFITEGEjJBUVJhcYGRBxMUk6Gx0hUWIkJTVGJydLPR4RczNIKSosHwIyQ1c6OyQ2Nk/8QAGwEBAAIDAQEAAAAAAAAAAAAAAAECAwQFBgf/xAA0EQACAQICBgkDBAMBAAAAAAAAAQIDEQQhBRIxUWGRFDJBcYGhscHhExXwIlKi0SMz8UL/2gAMAwEAAhEDEQA/AO4gAAAAAAAAHyuK8KcXOpKMIR1uUmlFLrZac1FOUnhRTbb2JLazk26PTk7uq3lqlBvxdPiS5zXOfozgzUaLqPcjDWrKmt7PWaR3eUYaqFOVZ86T8XDsysvuR5+73bXk+DKnSX0IJvHXPJ5tsvUtqkY76VKpGHOlCSh3tYOhHD049l+858sRUl227jMr6fu58K6rfuzlBd0cGHUvKsuFWqS+tUm/Wz4NlWzNqpbF5Ixaze1+bLSk3tbZCqNbJNdTaKtlWwQZMNI148GvWj9WpUj6mZlDdPe0+DdVf38VP+6Zp2yGVcIvaiynLf5nr7DwhXMGvGwp1o8erxdR9q1fyntdA7p7e8+DTk41sZdGpqnjjceKS6u3Bxlkxm4tSi3GUWnGUW1KMlsaa2Mw1MNCWzIzQxM47c/zefoIHjtw26l3UfE12vKKaypfLU1q32OctWV055cexObODi7M6UJqSugACpYAAAAAAAAAAAAAAAAAA0e7O4dOxrtbZKFPsnNRl6Gzk7OneEJ/5J/7lL1nMGdLBr9Hic3GdfwPfbgdCU/Fq6qRU5ylJUsrKpxi8OSXObT18i6We1ks6nrT1NcTR5fwfaQhUtVSyvGUHNSjxuMpOSl1a2uw9UaWIbdR3/EbuHSVNWOX7vNCQt6kKtKKjTrb7MVqjCqsbORNPZxYZ5Vs9v4TNIRlKlQi05U99UqY+K2sRj14y+7lPDNnRoNumrnNrpKo0g2VbDZRmYxBsqyWVYJDIbDZVsgGRo2/lb1qVaHCpTU8c5fGj1NZXad7pVFOMZReYzSlF8qaymfnlnd9zUs2Vm3tdtb/AHcTSxiVk/A3sG9qNmADRN0AAAAAAAAAAAAAAAAAA8z4Qv2J/wC7S9bOXNnU93dCdS0cacJ1JeMpvewjKcsZ24Ws509DXXzW48zV9k6WEa+n4nOxcW6mS7DFtbqpSmqlOcoTjslF4fV0roNvV3ZX0o73x2OJyjTpxm+3GrswYD0LdfNbjzFX2Sr0Ld/NLjzNX2TNJQlm7PkYI/UWSuuZgzm225NylJtttttt7W3xso2Z70Ld/NLnzFX2SHoS7+aXPmKvsl9Zbyv05bvI1zZDM6ehrlJt2tdJJtt0aiSS2tve6ka9sJp7A01tDZDZLZVsEBso2GyrYJDZ3bcv+w2f2a3+6icHbO8blv2Gy+zW/wB3E08b1V3m5hNrNqADQN4AAAAAAAAAAGl3Q6fp2cE5fDqTT3lNPDf0m+KJMYuTsiJSUVdm3nJRTcmopa228JLpZprndVZU3h14yf8A64yqLvimvSc30tpitcyzVqNrOY01qpQ6o/1eX0mvZvQwa2yfI0Z41/8Alczp73cWfOqeakV9/NnzqvmmcwbKtmTodPiY+l1OB1H392XOqeaZHv7sudU81I5c2VbHQ6fEdLqcDqfv8sudV80yPf7Zc6r5pnKmyrZHRKfEnpdTgdX9/wBZc6r5qRHv/sedV81I5QyrHRKfEdLqcDqOkN3NlOlVhGVTfTp1IRzSklvnFpHLQ2VbMtOlGn1TFUqyntDZRslsq2ZChDZVslsq2AQ2d53LvFhZv/5bd/8AFE4Kd43M/wCn2n2Wh90jSxvVTNzB9Zmf5bD+0PLYGuB5BaUr8OXydn6ETY+WQ5X3M+0Jp7GmagRm08p4aLw0rUT/AFxTXDJ+bZDoLsZugY1pcb5a9q2mSdunUjUipRzTNZpp2YABcgxNI3kaFKdWfBpxcnyvkiulvC7TkGkr6derOpUeZzeeiK4oroR7Twk3jUKNFP8AWSlUn9WOqKfa2/3TwLOlhKdo62/0Obi6l5au71DKtktlWzbNQhsq2S2Q2AQ2Q2GyrZBIbKMMqwSGQw2Q2AGyjYbKtkEhsq2GyrYAbKhgAHeNzP8Ap9p9lofdI4Od53ORxYWie1WlvnzUTRx3U5+huYPrMoRkEZPn/Yd8EZGSCpYvSqb2SkuLb08puU+NGhybawqb6C6Mr+/QdfRFa0pU325r39uRr4iGSkZQAO8ahy3d7c7+9muKlCnSXdv3/wB/QecbM/Tlbf3VxLlrVcfVU2l6EjXNnapq0EuBxajvNviGyrYbIbLlA2VbDZVsgkNlGyWyrBIZVsMNgENlWyWyjZAIbKtktlWwSGyrYbIAAAS73qS42+QgGTo2xlcVqVCHCqzjTX0U9supLL7DvldKFLex1JRjCK5EljHceR8Hu5OVsvKbiOK9SO9p03to03tb5Jv0LVxtHpL2vvpYWyPp6ThaXxihTdnvS73/AF+bTq4Gg1m/xGPkjIyRk8YdgEZBUqSSZ2ip65x6EzXmVo6WKiXLvvVn+hs4Cpq4iHfbnl7lK0bwZuQAevOccLrT30pPnSk+95Pm2WrR3spLmuS7ngo2dw4YbKthsq2AGyjZLZRgBshkpNtJJttpJJNtt6kkuNnR9y24WEFGrexVSo8ONF66dP6/Pl0bF07THUqxpq7MlOm5uyPC6O0Lc3OuhQnUjz8KMP45YXpN7T8Hd7JZcqMOiVSef5Ys6fO4hH4K4tSS2LoPi758UV3nHraYpwla6XNnRp4BWzz8jnL8G958rbecq+wV/Rte/K23nK3sHSPLpc31jy6XN9Zh++U9/wDFmT7et3mc2/RrefK23nKvsFX4NL35W285W9g6X5dLm+seXS5vrH3ynv8A4sdAW7zOZ/ozvflbbzlb2B+jO9+VtvOVvYOl+Xy5vrHl8ub6yPvtPf8AxZPQFu8znVr4MLhv/FuKMFy01Oq+5qJ7DQG461smppOrVj/5auG4fVWyPXt6TZyvpcSS7zGq1pS4Tb/vkNevpyLVo3fkv78jJTwKi729zKu7zPwYbON/gYORkg87XrzrS1p/C7joQgoqyGSAQa5cZIBGStywPtZy/wASHWvTqPhk+ln+sh9ZesvRf+SHevUiSyZ6EAHuDknFNO0t5c3MObWq4+rv216MGvbPRbv7beX1V8VWFKqv4d4/TBnnGzs03eKfA41RWk1xIbKtktlGXKBlWGSottKKzKTSS5ZPUkAe98GugU83lWOcOUKCezK1Sq+uK6pdB7i7uPix7WLK2jb0KdOPBowjBdLSxl9b19phHk9L4yXVi9vp8/2d/CUFGPd6gAHnTeABGQCSMkEZIuTYnJGSMkZK3JsSVyMkFbkgjIIKFgQCMlSRkjIyRkrckZMjRyzVh0Z9CZi5NjoWGZSlyau1v8jYwMNfEU48U+WfsUrPVg2bgAHtjlHgvCjZ/Bt66XBc6Mv3lvo+qXec+bO26c0crm3q0Xq8ZH4Mn8Wa1xl2NI4ncUpU5ShOLjOEnCUXtjJPDR0sJO8NXcc3FwtPW3nzbIYZVm0awbMzQizdWqex3FBdnjImE2Zugv2u0+0W/wB5ErLYy0Osjt99wH2GuNjf8A1x4TSf+7wXqz0lHqgAg5xmGSMjJXJVsmxOSMkEZK3JsSRkgjJW5YEAgo2SkSRkjJGSpIyRkZIyVbLDJGSSCrZJBvdF0t7TWdsvhPt/LBp7Shv5xjxPX1I9Kd3QlC8pVn2fpXvy2eLNTFzyUQAD0hoA8Xu33KO4zXt0vHpYnDUlWilqafOWzpXUj2gLwm4O6KTgpqzPz9VhKEnGcXCcXiUZJxlF8jT1oo2dx0poS3ul/j0YVGlhT1xqJcinHDS7TQ1fB1ZyeVO4guSNSLX80Wzeji4tZ5GjLCT7HfyOVNmZoF/5u0+02/3sTo36N7P5W5/jpewfS28H1rTnTqRqV99TqQqxTlT3u+hJSSfwNmoPFU2mvYRw0008uZ6e/wCB3GtybLSHANZk8ZpT/f4L3O7R6oIyMkHMM4yQRkgq2SSQTBZaXKbP3Oh095sYfB1a6bhbLe/gpOpGG01RBtfc6HLLvQ9zYfT7/wAjO9EYjhz+CqxEPxGpyRk23uZD6fevwHuZDln3r8CPs+I4c/gnpNP8RqMlcm49y6fLLvX4D3Lp8s+/8iv2fE8OfwT0mn+I02SDde5VP6XevwHuTT5Zd6/Aj7NieHP4J6VTNKTCLbSSy3sS2s3K0VT6X14/AyaNvCHBil/UvS0JWb/XJJcM36W8fIrLFxtkrny0daeLjr4T29XIZgB6WjSjSgoQySNGUnJ3YABkKgAAAAAAAAGLpHgPrRq8m00h+rfYarJ5vSz/AM/gvc3cP1RkjIyVOWZySCAVuWCeNm1H18qqc9958clckxqzj1W13Nr0DintPv5XU577yPK6nPfefDISbeEm29iWtsdIq/vfNjUjuPt5ZU577x5ZU+UfeJWNVLO87mm+4xialTEQ67ku9yXqTGMHss+R9/LKnyj7ze2zbhBvW3FNvleDzZ6S0/V0/qQ9R1dCVJznPWbeS2tvt4s1sXFKKsu0+wAPRmiAAAAAAAAAAAAAAAAAAYmkf1b60ak3dzDfQlHja/M0bPN6Yi1VUuxr0fyjdwzvFoZIBGTkXNoEZGSMlWyRkjJGSMlGybE5NvoiklBT+NPOvkw8Y9BpjbaIrre+Le1N46U9f4nS0Q4LErW3O3fl52vYwYpPUyNoafTNBJxmtWeF0viNwaTS1ypNRi8qOW3xZ5Dt6YcFhpKfh3/8vfhc1MMn9RWMA9JbcCH1Ieo87SpuclFbW/7Z6aMcJJbEkl1HP0DB3nPsyXjtM+MeSRYAHozRAAAAAAAAAAAAAAAAAABrr6zzmcFr+MuU2IMOIw8K0NSfynvX5weRaE3F3R5tlcm9uLSE9q18qNfV0ZNcFqfoPM4jRdem/wBK11w28tvK5vwxEJbcjBIyXqUZR4UWuvPrPmcud4u0lZ8TYWewnJAIKXLAA+tO2qS4MG+n82TCDqO0Vrdyv6Bu23Iq682sOTa5G9RSEW2kllvYltNjR0TJ8OSS5Fr9JsqFtGC+CscvG2dehonEVneq9VcXd8uzx2cTVniYRyjmY+j7LxazLXN9yRngHpqNGFGChBWSNCc3J3YABlKgAAAAAAAAAAAAAAAAAAAAAAAA+U6MXtin2ZPqA1fJgx/IqfMQ8jp8xesyAYvoUv2Lkv6La8t584U1HYkupJH0AMqyVioAAAAAAAAAAAAAAAAAAAAAAAAAAABDKMAvkrvz5sqwD6+MHjD4sgA+3jB4w+AAMjxg8YfAlAH335bJ8EWQB9gfNF0ASAAAAAAAAAAAD//Z;" vertex="1" parent="RQxE2vT2TZe3DlvVdF_B-91">
          <mxGeometry x="358.76" y="278" width="27.32" height="30" as="geometry" />
        </mxCell>
        <mxCell id="RQxE2vT2TZe3DlvVdF_B-80" value="" style="shape=image;verticalLabelPosition=bottom;labelBackgroundColor=default;verticalAlign=top;aspect=fixed;imageAspect=0;image=data:image/jpeg,/9j/4AAQSkZJRgABAQAAAQABAAD/2wCEAAkGBxEQEA8RDw8RDw8OEQ4PEBAQEBARDg4OFhIYFxcSFhYZHyohGRsmHxcUIjMiJiwtMDAwGCE1OjUuOSovMC8BCgoKDw4PGxERGzkfISQvLy0tNC0vLy8tLy8vLS8yLy0vLy0tLy0vLS8vLy8tLzEvLy8vLS8vLy8vLy8vLy8vL//AABEIAOsA1gMBIgACEQEDEQH/xAAcAAEAAgMBAQEAAAAAAAAAAAAAAQIEBQcGAwj/xABKEAACAQMAAwoHDAgGAwAAAAAAAQIDBBEFITEGEjJBUVJhcYGRBxMUk6Gx0hUWIkJTVGJydLPR4RczNIKSosHwIyQ1c6OyQ2Nk/8QAGwEBAAIDAQEAAAAAAAAAAAAAAAECAwQFBgf/xAA0EQACAQICBgkDBAMBAAAAAAAAAQIDEQQhBRIxUWGRFDJBcYGhscHhExXwIlKi0SMz8UL/2gAMAwEAAhEDEQA/AO4gAAAAAAAAHyuK8KcXOpKMIR1uUmlFLrZac1FOUnhRTbb2JLazk26PTk7uq3lqlBvxdPiS5zXOfozgzUaLqPcjDWrKmt7PWaR3eUYaqFOVZ86T8XDsysvuR5+73bXk+DKnSX0IJvHXPJ5tsvUtqkY76VKpGHOlCSh3tYOhHD049l+858sRUl227jMr6fu58K6rfuzlBd0cGHUvKsuFWqS+tUm/Wz4NlWzNqpbF5Ixaze1+bLSk3tbZCqNbJNdTaKtlWwQZMNI148GvWj9WpUj6mZlDdPe0+DdVf38VP+6Zp2yGVcIvaiynLf5nr7DwhXMGvGwp1o8erxdR9q1fyntdA7p7e8+DTk41sZdGpqnjjceKS6u3Bxlkxm4tSi3GUWnGUW1KMlsaa2Mw1MNCWzIzQxM47c/zefoIHjtw26l3UfE12vKKaypfLU1q32OctWV055cexObODi7M6UJqSugACpYAAAAAAAAAAAAAAAAAA0e7O4dOxrtbZKFPsnNRl6Gzk7OneEJ/5J/7lL1nMGdLBr9Hic3GdfwPfbgdCU/Fq6qRU5ylJUsrKpxi8OSXObT18i6We1ks6nrT1NcTR5fwfaQhUtVSyvGUHNSjxuMpOSl1a2uw9UaWIbdR3/EbuHSVNWOX7vNCQt6kKtKKjTrb7MVqjCqsbORNPZxYZ5Vs9v4TNIRlKlQi05U99UqY+K2sRj14y+7lPDNnRoNumrnNrpKo0g2VbDZRmYxBsqyWVYJDIbDZVsgGRo2/lb1qVaHCpTU8c5fGj1NZXad7pVFOMZReYzSlF8qaymfnlnd9zUs2Vm3tdtb/AHcTSxiVk/A3sG9qNmADRN0AAAAAAAAAAAAAAAAAA8z4Qv2J/wC7S9bOXNnU93dCdS0cacJ1JeMpvewjKcsZ24Ws509DXXzW48zV9k6WEa+n4nOxcW6mS7DFtbqpSmqlOcoTjslF4fV0roNvV3ZX0o73x2OJyjTpxm+3GrswYD0LdfNbjzFX2Sr0Ld/NLjzNX2TNJQlm7PkYI/UWSuuZgzm225NylJtttttt7W3xso2Z70Ld/NLnzFX2SHoS7+aXPmKvsl9Zbyv05bvI1zZDM6ehrlJt2tdJJtt0aiSS2tve6ka9sJp7A01tDZDZLZVsEBso2GyrYJDZ3bcv+w2f2a3+6icHbO8blv2Gy+zW/wB3E08b1V3m5hNrNqADQN4AAAAAAAAAAGl3Q6fp2cE5fDqTT3lNPDf0m+KJMYuTsiJSUVdm3nJRTcmopa228JLpZprndVZU3h14yf8A64yqLvimvSc30tpitcyzVqNrOY01qpQ6o/1eX0mvZvQwa2yfI0Z41/8Alczp73cWfOqeakV9/NnzqvmmcwbKtmTodPiY+l1OB1H392XOqeaZHv7sudU81I5c2VbHQ6fEdLqcDqfv8sudV80yPf7Zc6r5pnKmyrZHRKfEnpdTgdX9/wBZc6r5qRHv/sedV81I5QyrHRKfEdLqcDqOkN3NlOlVhGVTfTp1IRzSklvnFpHLQ2VbMtOlGn1TFUqyntDZRslsq2ZChDZVslsq2AQ2d53LvFhZv/5bd/8AFE4Kd43M/wCn2n2Wh90jSxvVTNzB9Zmf5bD+0PLYGuB5BaUr8OXydn6ETY+WQ5X3M+0Jp7GmagRm08p4aLw0rUT/AFxTXDJ+bZDoLsZugY1pcb5a9q2mSdunUjUipRzTNZpp2YABcgxNI3kaFKdWfBpxcnyvkiulvC7TkGkr6derOpUeZzeeiK4oroR7Twk3jUKNFP8AWSlUn9WOqKfa2/3TwLOlhKdo62/0Obi6l5au71DKtktlWzbNQhsq2S2Q2AQ2Q2GyrZBIbKMMqwSGQw2Q2AGyjYbKtkEhsq2GyrYAbKhgAHeNzP8Ap9p9lofdI4Od53ORxYWie1WlvnzUTRx3U5+huYPrMoRkEZPn/Yd8EZGSCpYvSqb2SkuLb08puU+NGhybawqb6C6Mr+/QdfRFa0pU325r39uRr4iGSkZQAO8ahy3d7c7+9muKlCnSXdv3/wB/QecbM/Tlbf3VxLlrVcfVU2l6EjXNnapq0EuBxajvNviGyrYbIbLlA2VbDZVsgkNlGyWyrBIZVsMNgENlWyWyjZAIbKtktlWwSGyrYbIAAAS73qS42+QgGTo2xlcVqVCHCqzjTX0U9supLL7DvldKFLex1JRjCK5EljHceR8Hu5OVsvKbiOK9SO9p03to03tb5Jv0LVxtHpL2vvpYWyPp6ThaXxihTdnvS73/AF+bTq4Gg1m/xGPkjIyRk8YdgEZBUqSSZ2ip65x6EzXmVo6WKiXLvvVn+hs4Cpq4iHfbnl7lK0bwZuQAevOccLrT30pPnSk+95Pm2WrR3spLmuS7ngo2dw4YbKthsq2AGyjZLZRgBshkpNtJJttpJJNtt6kkuNnR9y24WEFGrexVSo8ONF66dP6/Pl0bF07THUqxpq7MlOm5uyPC6O0Lc3OuhQnUjz8KMP45YXpN7T8Hd7JZcqMOiVSef5Ys6fO4hH4K4tSS2LoPi758UV3nHraYpwla6XNnRp4BWzz8jnL8G958rbecq+wV/Rte/K23nK3sHSPLpc31jy6XN9Zh++U9/wDFmT7et3mc2/RrefK23nKvsFX4NL35W285W9g6X5dLm+seXS5vrH3ynv8A4sdAW7zOZ/ozvflbbzlb2B+jO9+VtvOVvYOl+Xy5vrHl8ub6yPvtPf8AxZPQFu8znVr4MLhv/FuKMFy01Oq+5qJ7DQG461smppOrVj/5auG4fVWyPXt6TZyvpcSS7zGq1pS4Tb/vkNevpyLVo3fkv78jJTwKi729zKu7zPwYbON/gYORkg87XrzrS1p/C7joQgoqyGSAQa5cZIBGStywPtZy/wASHWvTqPhk+ln+sh9ZesvRf+SHevUiSyZ6EAHuDknFNO0t5c3MObWq4+rv216MGvbPRbv7beX1V8VWFKqv4d4/TBnnGzs03eKfA41RWk1xIbKtktlGXKBlWGSottKKzKTSS5ZPUkAe98GugU83lWOcOUKCezK1Sq+uK6pdB7i7uPix7WLK2jb0KdOPBowjBdLSxl9b19phHk9L4yXVi9vp8/2d/CUFGPd6gAHnTeABGQCSMkEZIuTYnJGSMkZK3JsSVyMkFbkgjIIKFgQCMlSRkjIyRkrckZMjRyzVh0Z9CZi5NjoWGZSlyau1v8jYwMNfEU48U+WfsUrPVg2bgAHtjlHgvCjZ/Bt66XBc6Mv3lvo+qXec+bO26c0crm3q0Xq8ZH4Mn8Wa1xl2NI4ncUpU5ShOLjOEnCUXtjJPDR0sJO8NXcc3FwtPW3nzbIYZVm0awbMzQizdWqex3FBdnjImE2Zugv2u0+0W/wB5ErLYy0Osjt99wH2GuNjf8A1x4TSf+7wXqz0lHqgAg5xmGSMjJXJVsmxOSMkEZK3JsSRkgjJW5YEAgo2SkSRkjJGSpIyRkZIyVbLDJGSSCrZJBvdF0t7TWdsvhPt/LBp7Shv5xjxPX1I9Kd3QlC8pVn2fpXvy2eLNTFzyUQAD0hoA8Xu33KO4zXt0vHpYnDUlWilqafOWzpXUj2gLwm4O6KTgpqzPz9VhKEnGcXCcXiUZJxlF8jT1oo2dx0poS3ul/j0YVGlhT1xqJcinHDS7TQ1fB1ZyeVO4guSNSLX80Wzeji4tZ5GjLCT7HfyOVNmZoF/5u0+02/3sTo36N7P5W5/jpewfS28H1rTnTqRqV99TqQqxTlT3u+hJSSfwNmoPFU2mvYRw0008uZ6e/wCB3GtybLSHANZk8ZpT/f4L3O7R6oIyMkHMM4yQRkgq2SSQTBZaXKbP3Oh095sYfB1a6bhbLe/gpOpGG01RBtfc6HLLvQ9zYfT7/wAjO9EYjhz+CqxEPxGpyRk23uZD6fevwHuZDln3r8CPs+I4c/gnpNP8RqMlcm49y6fLLvX4D3Lp8s+/8iv2fE8OfwT0mn+I02SDde5VP6XevwHuTT5Zd6/Aj7NieHP4J6VTNKTCLbSSy3sS2s3K0VT6X14/AyaNvCHBil/UvS0JWb/XJJcM36W8fIrLFxtkrny0daeLjr4T29XIZgB6WjSjSgoQySNGUnJ3YABkKgAAAAAAAAGLpHgPrRq8m00h+rfYarJ5vSz/AM/gvc3cP1RkjIyVOWZySCAVuWCeNm1H18qqc9958clckxqzj1W13Nr0DintPv5XU577yPK6nPfefDISbeEm29iWtsdIq/vfNjUjuPt5ZU577x5ZU+UfeJWNVLO87mm+4xialTEQ67ku9yXqTGMHss+R9/LKnyj7ze2zbhBvW3FNvleDzZ6S0/V0/qQ9R1dCVJznPWbeS2tvt4s1sXFKKsu0+wAPRmiAAAAAAAAAAAAAAAAAAYmkf1b60ak3dzDfQlHja/M0bPN6Yi1VUuxr0fyjdwzvFoZIBGTkXNoEZGSMlWyRkjJGSMlGybE5NvoiklBT+NPOvkw8Y9BpjbaIrre+Le1N46U9f4nS0Q4LErW3O3fl52vYwYpPUyNoafTNBJxmtWeF0viNwaTS1ypNRi8qOW3xZ5Dt6YcFhpKfh3/8vfhc1MMn9RWMA9JbcCH1Ieo87SpuclFbW/7Z6aMcJJbEkl1HP0DB3nPsyXjtM+MeSRYAHozRAAAAAAAAAAAAAAAAAABrr6zzmcFr+MuU2IMOIw8K0NSfynvX5weRaE3F3R5tlcm9uLSE9q18qNfV0ZNcFqfoPM4jRdem/wBK11w28tvK5vwxEJbcjBIyXqUZR4UWuvPrPmcud4u0lZ8TYWewnJAIKXLAA+tO2qS4MG+n82TCDqO0Vrdyv6Bu23Iq682sOTa5G9RSEW2kllvYltNjR0TJ8OSS5Fr9JsqFtGC+CscvG2dehonEVneq9VcXd8uzx2cTVniYRyjmY+j7LxazLXN9yRngHpqNGFGChBWSNCc3J3YABlKgAAAAAAAAAAAAAAAAAAAAAAAA+U6MXtin2ZPqA1fJgx/IqfMQ8jp8xesyAYvoUv2Lkv6La8t584U1HYkupJH0AMqyVioAAAAAAAAAAAAAAAAAAAAAAAAAAABDKMAvkrvz5sqwD6+MHjD4sgA+3jB4w+AAMjxg8YfAlAH335bJ8EWQB9gfNF0ASAAAAAAAAAAAD//Z;" vertex="1" parent="RQxE2vT2TZe3DlvVdF_B-91">
          <mxGeometry x="359.99999999999994" y="398" width="27.32" height="30" as="geometry" />
        </mxCell>
        <mxCell id="RQxE2vT2TZe3DlvVdF_B-81" value="" style="shape=image;verticalLabelPosition=bottom;labelBackgroundColor=default;verticalAlign=top;aspect=fixed;imageAspect=0;image=data:image/jpeg,/9j/4AAQSkZJRgABAQAAAQABAAD/2wCEAAkGBxEQEA8RDw8RDw8OEQ4PEBAQEBARDg4OFhIYFxcSFhYZHyohGRsmHxcUIjMiJiwtMDAwGCE1OjUuOSovMC8BCgoKDw4PGxERGzkfISQvLy0tNC0vLy8tLy8vLS8yLy0vLy0tLy0vLS8vLy8tLzEvLy8vLS8vLy8vLy8vLy8vL//AABEIAOsA1gMBIgACEQEDEQH/xAAcAAEAAgMBAQEAAAAAAAAAAAAAAQIEBQcGAwj/xABKEAACAQMAAwoHDAgGAwAAAAAAAQIDBBEFITEGEjJBUVJhcYGRBxMUk6Gx0hUWIkJTVGJydLPR4RczNIKSosHwIyQ1c6OyQ2Nk/8QAGwEBAAIDAQEAAAAAAAAAAAAAAAECAwQFBgf/xAA0EQACAQICBgkDBAMBAAAAAAAAAQIDEQQhBRIxUWGRFDJBcYGhscHhExXwIlKi0SMz8UL/2gAMAwEAAhEDEQA/AO4gAAAAAAAAHyuK8KcXOpKMIR1uUmlFLrZac1FOUnhRTbb2JLazk26PTk7uq3lqlBvxdPiS5zXOfozgzUaLqPcjDWrKmt7PWaR3eUYaqFOVZ86T8XDsysvuR5+73bXk+DKnSX0IJvHXPJ5tsvUtqkY76VKpGHOlCSh3tYOhHD049l+858sRUl227jMr6fu58K6rfuzlBd0cGHUvKsuFWqS+tUm/Wz4NlWzNqpbF5Ixaze1+bLSk3tbZCqNbJNdTaKtlWwQZMNI148GvWj9WpUj6mZlDdPe0+DdVf38VP+6Zp2yGVcIvaiynLf5nr7DwhXMGvGwp1o8erxdR9q1fyntdA7p7e8+DTk41sZdGpqnjjceKS6u3Bxlkxm4tSi3GUWnGUW1KMlsaa2Mw1MNCWzIzQxM47c/zefoIHjtw26l3UfE12vKKaypfLU1q32OctWV055cexObODi7M6UJqSugACpYAAAAAAAAAAAAAAAAAA0e7O4dOxrtbZKFPsnNRl6Gzk7OneEJ/5J/7lL1nMGdLBr9Hic3GdfwPfbgdCU/Fq6qRU5ylJUsrKpxi8OSXObT18i6We1ks6nrT1NcTR5fwfaQhUtVSyvGUHNSjxuMpOSl1a2uw9UaWIbdR3/EbuHSVNWOX7vNCQt6kKtKKjTrb7MVqjCqsbORNPZxYZ5Vs9v4TNIRlKlQi05U99UqY+K2sRj14y+7lPDNnRoNumrnNrpKo0g2VbDZRmYxBsqyWVYJDIbDZVsgGRo2/lb1qVaHCpTU8c5fGj1NZXad7pVFOMZReYzSlF8qaymfnlnd9zUs2Vm3tdtb/AHcTSxiVk/A3sG9qNmADRN0AAAAAAAAAAAAAAAAAA8z4Qv2J/wC7S9bOXNnU93dCdS0cacJ1JeMpvewjKcsZ24Ws509DXXzW48zV9k6WEa+n4nOxcW6mS7DFtbqpSmqlOcoTjslF4fV0roNvV3ZX0o73x2OJyjTpxm+3GrswYD0LdfNbjzFX2Sr0Ld/NLjzNX2TNJQlm7PkYI/UWSuuZgzm225NylJtttttt7W3xso2Z70Ld/NLnzFX2SHoS7+aXPmKvsl9Zbyv05bvI1zZDM6ehrlJt2tdJJtt0aiSS2tve6ka9sJp7A01tDZDZLZVsEBso2GyrYJDZ3bcv+w2f2a3+6icHbO8blv2Gy+zW/wB3E08b1V3m5hNrNqADQN4AAAAAAAAAAGl3Q6fp2cE5fDqTT3lNPDf0m+KJMYuTsiJSUVdm3nJRTcmopa228JLpZprndVZU3h14yf8A64yqLvimvSc30tpitcyzVqNrOY01qpQ6o/1eX0mvZvQwa2yfI0Z41/8Alczp73cWfOqeakV9/NnzqvmmcwbKtmTodPiY+l1OB1H392XOqeaZHv7sudU81I5c2VbHQ6fEdLqcDqfv8sudV80yPf7Zc6r5pnKmyrZHRKfEnpdTgdX9/wBZc6r5qRHv/sedV81I5QyrHRKfEdLqcDqOkN3NlOlVhGVTfTp1IRzSklvnFpHLQ2VbMtOlGn1TFUqyntDZRslsq2ZChDZVslsq2AQ2d53LvFhZv/5bd/8AFE4Kd43M/wCn2n2Wh90jSxvVTNzB9Zmf5bD+0PLYGuB5BaUr8OXydn6ETY+WQ5X3M+0Jp7GmagRm08p4aLw0rUT/AFxTXDJ+bZDoLsZugY1pcb5a9q2mSdunUjUipRzTNZpp2YABcgxNI3kaFKdWfBpxcnyvkiulvC7TkGkr6derOpUeZzeeiK4oroR7Twk3jUKNFP8AWSlUn9WOqKfa2/3TwLOlhKdo62/0Obi6l5au71DKtktlWzbNQhsq2S2Q2AQ2Q2GyrZBIbKMMqwSGQw2Q2AGyjYbKtkEhsq2GyrYAbKhgAHeNzP8Ap9p9lofdI4Od53ORxYWie1WlvnzUTRx3U5+huYPrMoRkEZPn/Yd8EZGSCpYvSqb2SkuLb08puU+NGhybawqb6C6Mr+/QdfRFa0pU325r39uRr4iGSkZQAO8ahy3d7c7+9muKlCnSXdv3/wB/QecbM/Tlbf3VxLlrVcfVU2l6EjXNnapq0EuBxajvNviGyrYbIbLlA2VbDZVsgkNlGyWyrBIZVsMNgENlWyWyjZAIbKtktlWwSGyrYbIAAAS73qS42+QgGTo2xlcVqVCHCqzjTX0U9supLL7DvldKFLex1JRjCK5EljHceR8Hu5OVsvKbiOK9SO9p03to03tb5Jv0LVxtHpL2vvpYWyPp6ThaXxihTdnvS73/AF+bTq4Gg1m/xGPkjIyRk8YdgEZBUqSSZ2ip65x6EzXmVo6WKiXLvvVn+hs4Cpq4iHfbnl7lK0bwZuQAevOccLrT30pPnSk+95Pm2WrR3spLmuS7ngo2dw4YbKthsq2AGyjZLZRgBshkpNtJJttpJJNtt6kkuNnR9y24WEFGrexVSo8ONF66dP6/Pl0bF07THUqxpq7MlOm5uyPC6O0Lc3OuhQnUjz8KMP45YXpN7T8Hd7JZcqMOiVSef5Ys6fO4hH4K4tSS2LoPi758UV3nHraYpwla6XNnRp4BWzz8jnL8G958rbecq+wV/Rte/K23nK3sHSPLpc31jy6XN9Zh++U9/wDFmT7et3mc2/RrefK23nKvsFX4NL35W285W9g6X5dLm+seXS5vrH3ynv8A4sdAW7zOZ/ozvflbbzlb2B+jO9+VtvOVvYOl+Xy5vrHl8ub6yPvtPf8AxZPQFu8znVr4MLhv/FuKMFy01Oq+5qJ7DQG461smppOrVj/5auG4fVWyPXt6TZyvpcSS7zGq1pS4Tb/vkNevpyLVo3fkv78jJTwKi729zKu7zPwYbON/gYORkg87XrzrS1p/C7joQgoqyGSAQa5cZIBGStywPtZy/wASHWvTqPhk+ln+sh9ZesvRf+SHevUiSyZ6EAHuDknFNO0t5c3MObWq4+rv216MGvbPRbv7beX1V8VWFKqv4d4/TBnnGzs03eKfA41RWk1xIbKtktlGXKBlWGSottKKzKTSS5ZPUkAe98GugU83lWOcOUKCezK1Sq+uK6pdB7i7uPix7WLK2jb0KdOPBowjBdLSxl9b19phHk9L4yXVi9vp8/2d/CUFGPd6gAHnTeABGQCSMkEZIuTYnJGSMkZK3JsSVyMkFbkgjIIKFgQCMlSRkjIyRkrckZMjRyzVh0Z9CZi5NjoWGZSlyau1v8jYwMNfEU48U+WfsUrPVg2bgAHtjlHgvCjZ/Bt66XBc6Mv3lvo+qXec+bO26c0crm3q0Xq8ZH4Mn8Wa1xl2NI4ncUpU5ShOLjOEnCUXtjJPDR0sJO8NXcc3FwtPW3nzbIYZVm0awbMzQizdWqex3FBdnjImE2Zugv2u0+0W/wB5ErLYy0Osjt99wH2GuNjf8A1x4TSf+7wXqz0lHqgAg5xmGSMjJXJVsmxOSMkEZK3JsSRkgjJW5YEAgo2SkSRkjJGSpIyRkZIyVbLDJGSSCrZJBvdF0t7TWdsvhPt/LBp7Shv5xjxPX1I9Kd3QlC8pVn2fpXvy2eLNTFzyUQAD0hoA8Xu33KO4zXt0vHpYnDUlWilqafOWzpXUj2gLwm4O6KTgpqzPz9VhKEnGcXCcXiUZJxlF8jT1oo2dx0poS3ul/j0YVGlhT1xqJcinHDS7TQ1fB1ZyeVO4guSNSLX80Wzeji4tZ5GjLCT7HfyOVNmZoF/5u0+02/3sTo36N7P5W5/jpewfS28H1rTnTqRqV99TqQqxTlT3u+hJSSfwNmoPFU2mvYRw0008uZ6e/wCB3GtybLSHANZk8ZpT/f4L3O7R6oIyMkHMM4yQRkgq2SSQTBZaXKbP3Oh095sYfB1a6bhbLe/gpOpGG01RBtfc6HLLvQ9zYfT7/wAjO9EYjhz+CqxEPxGpyRk23uZD6fevwHuZDln3r8CPs+I4c/gnpNP8RqMlcm49y6fLLvX4D3Lp8s+/8iv2fE8OfwT0mn+I02SDde5VP6XevwHuTT5Zd6/Aj7NieHP4J6VTNKTCLbSSy3sS2s3K0VT6X14/AyaNvCHBil/UvS0JWb/XJJcM36W8fIrLFxtkrny0daeLjr4T29XIZgB6WjSjSgoQySNGUnJ3YABkKgAAAAAAAAGLpHgPrRq8m00h+rfYarJ5vSz/AM/gvc3cP1RkjIyVOWZySCAVuWCeNm1H18qqc9958clckxqzj1W13Nr0DintPv5XU577yPK6nPfefDISbeEm29iWtsdIq/vfNjUjuPt5ZU577x5ZU+UfeJWNVLO87mm+4xialTEQ67ku9yXqTGMHss+R9/LKnyj7ze2zbhBvW3FNvleDzZ6S0/V0/qQ9R1dCVJznPWbeS2tvt4s1sXFKKsu0+wAPRmiAAAAAAAAAAAAAAAAAAYmkf1b60ak3dzDfQlHja/M0bPN6Yi1VUuxr0fyjdwzvFoZIBGTkXNoEZGSMlWyRkjJGSMlGybE5NvoiklBT+NPOvkw8Y9BpjbaIrre+Le1N46U9f4nS0Q4LErW3O3fl52vYwYpPUyNoafTNBJxmtWeF0viNwaTS1ypNRi8qOW3xZ5Dt6YcFhpKfh3/8vfhc1MMn9RWMA9JbcCH1Ieo87SpuclFbW/7Z6aMcJJbEkl1HP0DB3nPsyXjtM+MeSRYAHozRAAAAAAAAAAAAAAAAAABrr6zzmcFr+MuU2IMOIw8K0NSfynvX5weRaE3F3R5tlcm9uLSE9q18qNfV0ZNcFqfoPM4jRdem/wBK11w28tvK5vwxEJbcjBIyXqUZR4UWuvPrPmcud4u0lZ8TYWewnJAIKXLAA+tO2qS4MG+n82TCDqO0Vrdyv6Bu23Iq682sOTa5G9RSEW2kllvYltNjR0TJ8OSS5Fr9JsqFtGC+CscvG2dehonEVneq9VcXd8uzx2cTVniYRyjmY+j7LxazLXN9yRngHpqNGFGChBWSNCc3J3YABlKgAAAAAAAAAAAAAAAAAAAAAAAA+U6MXtin2ZPqA1fJgx/IqfMQ8jp8xesyAYvoUv2Lkv6La8t584U1HYkupJH0AMqyVioAAAAAAAAAAAAAAAAAAAAAAAAAAABDKMAvkrvz5sqwD6+MHjD4sgA+3jB4w+AAMjxg8YfAlAH335bJ8EWQB9gfNF0ASAAAAAAAAAAAD//Z;" vertex="1" parent="RQxE2vT2TZe3DlvVdF_B-91">
          <mxGeometry x="359.99999999999994" y="530" width="27.32" height="30" as="geometry" />
        </mxCell>
        <mxCell id="RQxE2vT2TZe3DlvVdF_B-128" value="Cloud&#xa;Functions" style="sketch=0;html=1;verticalAlign=top;labelPosition=center;verticalLabelPosition=bottom;align=center;spacingTop=-6;fontSize=11;fontStyle=1;fontColor=#999999;shape=image;aspect=fixed;imageAspect=0;image=data:image/svg+xml,PHN2ZyB4bWxucz0iaHR0cDovL3d3dy53My5vcmcvMjAwMC9zdmciIHhtbG5zOnY9Imh0dHBzOi8vdmVjdGEuaW8vbmFubyIgd2lkdGg9IjIwIiBoZWlnaHQ9IjE5Ljk4OTk5OTc3MTExODE2NCIgdmlld0JveD0iMCAwIDIwIDE5Ljk4OTk5OTc3MTExODE2NCI+JiN4YTsJPHN0eWxlIHR5cGU9InRleHQvY3NzIj4mI3hhOwkuc3Qwe2ZpbGw6IzQyODVmNDt9JiN4YTsJLnN0MXtmaWxsOiM2NjlkZjY7fSYjeGE7CS5zdDJ7ZmlsbDojYWVjYmZhO30mI3hhOwk8L3N0eWxlPiYjeGE7CTxwYXRoIGNsYXNzPSJzdDEiIGQ9Ik0zIDMuOTlMMCA2LjQydjcuMTNsMyAyLjQ0eiIvPiYjeGE7CTxwYXRoIGNsYXNzPSJzdDAiIGQ9Ik0zIDMuOTlsLTMgNCAzLTJ6bS0zIDhsMyA0di0yeiIvPiYjeGE7CTxwYXRoIGNsYXNzPSJzdDIiIGQ9Ik0wIDE1Ljk5bDQgNCAyLTItNi02em0uMDEtOEw1Ljk5IDJsLTItMkwwIDMuOTl6Ii8+JiN4YTsJPHBhdGggY2xhc3M9InN0MSIgZD0iTTE3IDE2bDMtMi40MlY2LjQ0TDE3IDR6Ii8+JiN4YTsJPHBhdGggY2xhc3M9InN0MCIgZD0iTTE3IDE2bDMtNC0zIDJ6bTMtOGwtMy00djJ6Ii8+JiN4YTsJPGcgY2xhc3M9InN0MiI+JiN4YTsJCTxwYXRoIGQ9Ik0yMCA0bC00LTQtMiAyIDYgNnptLS4wMSA4bC01Ljk4IDUuOTkgMiAyTDIwIDE2eiIvPiYjeGE7CQk8Y2lyY2xlIGN4PSI2IiBjeT0iOS45OSIgcj0iMSIvPiYjeGE7CQk8Y2lyY2xlIGN4PSIxMCIgY3k9IjkuOTkiIHI9IjEiLz4mI3hhOwkJPGNpcmNsZSBjeD0iMTMuOTkiIGN5PSI5Ljk5IiByPSIxIi8+JiN4YTsJPC9nPiYjeGE7PC9zdmc+;" vertex="1" parent="RQxE2vT2TZe3DlvVdF_B-91">
          <mxGeometry x="300.00181818181807" y="278" width="40.090909090909086" height="32.45454545454545" as="geometry" />
        </mxCell>
        <mxCell id="RQxE2vT2TZe3DlvVdF_B-129" value="Cloud&#xa;Functions" style="sketch=0;html=1;verticalAlign=top;labelPosition=center;verticalLabelPosition=bottom;align=center;spacingTop=-6;fontSize=11;fontStyle=1;fontColor=#999999;shape=image;aspect=fixed;imageAspect=0;image=data:image/svg+xml,PHN2ZyB4bWxucz0iaHR0cDovL3d3dy53My5vcmcvMjAwMC9zdmciIHhtbG5zOnY9Imh0dHBzOi8vdmVjdGEuaW8vbmFubyIgd2lkdGg9IjIwIiBoZWlnaHQ9IjE5Ljk4OTk5OTc3MTExODE2NCIgdmlld0JveD0iMCAwIDIwIDE5Ljk4OTk5OTc3MTExODE2NCI+JiN4YTsJPHN0eWxlIHR5cGU9InRleHQvY3NzIj4mI3hhOwkuc3Qwe2ZpbGw6IzQyODVmNDt9JiN4YTsJLnN0MXtmaWxsOiM2NjlkZjY7fSYjeGE7CS5zdDJ7ZmlsbDojYWVjYmZhO30mI3hhOwk8L3N0eWxlPiYjeGE7CTxwYXRoIGNsYXNzPSJzdDEiIGQ9Ik0zIDMuOTlMMCA2LjQydjcuMTNsMyAyLjQ0eiIvPiYjeGE7CTxwYXRoIGNsYXNzPSJzdDAiIGQ9Ik0zIDMuOTlsLTMgNCAzLTJ6bS0zIDhsMyA0di0yeiIvPiYjeGE7CTxwYXRoIGNsYXNzPSJzdDIiIGQ9Ik0wIDE1Ljk5bDQgNCAyLTItNi02em0uMDEtOEw1Ljk5IDJsLTItMkwwIDMuOTl6Ii8+JiN4YTsJPHBhdGggY2xhc3M9InN0MSIgZD0iTTE3IDE2bDMtMi40MlY2LjQ0TDE3IDR6Ii8+JiN4YTsJPHBhdGggY2xhc3M9InN0MCIgZD0iTTE3IDE2bDMtNC0zIDJ6bTMtOGwtMy00djJ6Ii8+JiN4YTsJPGcgY2xhc3M9InN0MiI+JiN4YTsJCTxwYXRoIGQ9Ik0yMCA0bC00LTQtMiAyIDYgNnptLS4wMSA4bC01Ljk4IDUuOTkgMiAyTDIwIDE2eiIvPiYjeGE7CQk8Y2lyY2xlIGN4PSI2IiBjeT0iOS45OSIgcj0iMSIvPiYjeGE7CQk8Y2lyY2xlIGN4PSIxMCIgY3k9IjkuOTkiIHI9IjEiLz4mI3hhOwkJPGNpcmNsZSBjeD0iMTMuOTkiIGN5PSI5Ljk5IiByPSIxIi8+JiN4YTsJPC9nPiYjeGE7PC9zdmc+;" vertex="1" parent="RQxE2vT2TZe3DlvVdF_B-91">
          <mxGeometry x="300.00181818181807" y="396.77" width="40.090909090909086" height="32.45454545454545" as="geometry" />
        </mxCell>
        <mxCell id="RQxE2vT2TZe3DlvVdF_B-130" value="Cloud&#xa;Functions" style="sketch=0;html=1;verticalAlign=top;labelPosition=center;verticalLabelPosition=bottom;align=center;spacingTop=-6;fontSize=11;fontStyle=1;fontColor=#999999;shape=image;aspect=fixed;imageAspect=0;image=data:image/svg+xml,PHN2ZyB4bWxucz0iaHR0cDovL3d3dy53My5vcmcvMjAwMC9zdmciIHhtbG5zOnY9Imh0dHBzOi8vdmVjdGEuaW8vbmFubyIgd2lkdGg9IjIwIiBoZWlnaHQ9IjE5Ljk4OTk5OTc3MTExODE2NCIgdmlld0JveD0iMCAwIDIwIDE5Ljk4OTk5OTc3MTExODE2NCI+JiN4YTsJPHN0eWxlIHR5cGU9InRleHQvY3NzIj4mI3hhOwkuc3Qwe2ZpbGw6IzQyODVmNDt9JiN4YTsJLnN0MXtmaWxsOiM2NjlkZjY7fSYjeGE7CS5zdDJ7ZmlsbDojYWVjYmZhO30mI3hhOwk8L3N0eWxlPiYjeGE7CTxwYXRoIGNsYXNzPSJzdDEiIGQ9Ik0zIDMuOTlMMCA2LjQydjcuMTNsMyAyLjQ0eiIvPiYjeGE7CTxwYXRoIGNsYXNzPSJzdDAiIGQ9Ik0zIDMuOTlsLTMgNCAzLTJ6bS0zIDhsMyA0di0yeiIvPiYjeGE7CTxwYXRoIGNsYXNzPSJzdDIiIGQ9Ik0wIDE1Ljk5bDQgNCAyLTItNi02em0uMDEtOEw1Ljk5IDJsLTItMkwwIDMuOTl6Ii8+JiN4YTsJPHBhdGggY2xhc3M9InN0MSIgZD0iTTE3IDE2bDMtMi40MlY2LjQ0TDE3IDR6Ii8+JiN4YTsJPHBhdGggY2xhc3M9InN0MCIgZD0iTTE3IDE2bDMtNC0zIDJ6bTMtOGwtMy00djJ6Ii8+JiN4YTsJPGcgY2xhc3M9InN0MiI+JiN4YTsJCTxwYXRoIGQ9Ik0yMCA0bC00LTQtMiAyIDYgNnptLS4wMSA4bC01Ljk4IDUuOTkgMiAyTDIwIDE2eiIvPiYjeGE7CQk8Y2lyY2xlIGN4PSI2IiBjeT0iOS45OSIgcj0iMSIvPiYjeGE7CQk8Y2lyY2xlIGN4PSIxMCIgY3k9IjkuOTkiIHI9IjEiLz4mI3hhOwkJPGNpcmNsZSBjeD0iMTMuOTkiIGN5PSI5Ljk5IiByPSIxIi8+JiN4YTsJPC9nPiYjeGE7PC9zdmc+;" vertex="1" parent="RQxE2vT2TZe3DlvVdF_B-91">
          <mxGeometry x="300.00181818181807" y="527.55" width="40.090909090909086" height="32.45454545454545" as="geometry" />
        </mxCell>
        <mxCell id="RQxE2vT2TZe3DlvVdF_B-44" value="Almacena datos&lt;br&gt;filtrados" style="text;html=1;align=center;verticalAlign=middle;resizable=0;points=[];autosize=1;strokeColor=none;fillColor=none;" vertex="1" parent="RQxE2vT2TZe3DlvVdF_B-91">
          <mxGeometry x="687.96" y="438" width="110" height="40" as="geometry" />
        </mxCell>
        <mxCell id="RQxE2vT2TZe3DlvVdF_B-132" value="" style="endArrow=none;html=1;rounded=0;" edge="1" parent="RQxE2vT2TZe3DlvVdF_B-91">
          <mxGeometry width="50" height="50" relative="1" as="geometry">
            <mxPoint x="650" y="378" as="sourcePoint" />
            <mxPoint x="650" y="126.63999999999999" as="targetPoint" />
          </mxGeometry>
        </mxCell>
        <mxCell id="RQxE2vT2TZe3DlvVdF_B-131" style="edgeStyle=orthogonalEdgeStyle;rounded=0;orthogonalLoop=1;jettySize=auto;html=1;" edge="1" parent="RQxE2vT2TZe3DlvVdF_B-91" source="RQxE2vT2TZe3DlvVdF_B-32" target="RQxE2vT2TZe3DlvVdF_B-43">
          <mxGeometry relative="1" as="geometry">
            <mxPoint x="690" y="375" as="targetPoint" />
          </mxGeometry>
        </mxCell>
        <mxCell id="RQxE2vT2TZe3DlvVdF_B-136" value="" style="shape=image;verticalLabelPosition=bottom;labelBackgroundColor=default;verticalAlign=top;aspect=fixed;imageAspect=0;image=data:image/png,iVBORw0KGgoAAAANSUhEUgAAASwAAACoCAMAAABt9SM9AAAAsVBMVEX///8xYZMAAABzjq8tXpE0NDQgV43b4+sASYYJT4kZVIslWo5iY2QUUoooW48hWI2zwdL3+fusvM+mp6jn6OmUlZaSp8Dt8fWKioqfoKDh5+6ztLVAa5nz9PSKobx7fHyesMbEz9w9PT3AwMGRkpJxcnIrLCze3t/IycrU1dVZWlojIyNDQ0MNDQ3S2+VJcZ0aGhpfgKa9ythbXFx7lbRpiKyCg4NNTk4AQYJTeaJ3kbGi+QpZAAAK00lEQVR4nO2ca2OiOhCGxwgoKCqINxS8V/GuxVr7/3/YmYS7bbfb3dOyu87zYSsRJbxOJjOTsAAEQRAEQRAEQRAEQRAEQRAEQRAEQRAEQRAEQRAEQRAEQRAEQRAEQRAEQRAE8TdiLRYLK+9O/CE4C89bWEaqxVpO+/3lApu82YqFHKrNO1fMaVYjMbar7pSrsZxHLUwO/qxlWd6KV5t+3h3OD2MoJHhYVaubQ/Cyu+F/LsNu96mKWq2anhOeu+hzXQ/LfLucG0u8+cd+PLas6Uwo1VpkzjLs3Xi8s8Uw7aN+82/u5Z9BHw2HK9UZN8zGeNfhbU5z7vCWkeu75o4LtCs8q5quq/reLeFhE43LybXbuYB21UJd2gVVVxRFU9X6sS3kGV9VvV6pVBRd3Y9QwpNUKyBSRd2f8AMbdrg/Ry+0MtW6VIiQ6s8NMI56qkXRfQOblPBQv6J4F7Y1Pv76f4oW2wC4aiGNNoLOoJJpKtQrDTxPC49qtR3AhlXz7v03w5gHp6xW0h5gUCvcIKkuqqXHRztwGFt8fIF/iD67gFGTMrJoJXCVW614+xHAj96QlA7MWS/v/n8rc9aEUVaZ2gvs1NdSIUoRYB8JW3lBpe8rfljjSNpnDUvfwfnVIAxty4VObFoFWLBV3v3/TtDtgHHjsQbQeduwEHUMZuTk64aDY/iOsJgMOz2jR70N5lseKzInGISGqKBYj3nfwHeywNs9ZaXRxnCW3tApVMiNxa2gXd6Vz1pgqHRjR4ph1N/VCrXshD4Ojczi8ez9sEDbGGW0QZeFc6FUU+qVV/Yl1TW93A5nT+mKmdJdlWqEZWXEqhWhoeoDf2S6Ay2rlTIY7Wy7BLYYhzUfQ4e7CkotFKuRGYbo39vFUvDuKOP6tXb4oY4QsW7CkN1VcuhgZjjOSKKMABWwTbc4MsBNGV3tDNC+DnhkIT6g2yBv8u7/97JmYGeiKsUE2F111W+411CW0LAwVsX3joVwGPLJsPs1nbJPbb/ojnbppoZ7Pvtxk2F3vubSP6TKHNBvxGqrEpcG2uN0KF+BTtm3R5ggjrXA0JbsS2rLu4Faru33Bfx3FDaN92q5jk3lshQ0lZ7PX3HpD2jhDWfSnfoIfFRIqpmm3k7NlBgp2GpNV9Cvi1gDRe2yr6iVllS1LczGMAtqUTT5qt4WbrSDTYOOOKn4BZf+iCXrgZsuXaGDD46VOhrPOJkQ62DogZjifb0DcpTsPG4miCzLj83f79Fea0QvOwX9hH+K6jUZdK5a6OQlFg/CM1Epnw1D8dCXlxJ/ppVEooMW9VITNS8rjrJk1hJ0L7+fLBq6lByY+pFXca/pE3zelo9YIG/B1t4Wq6CkU2o0qTYOSqUBxZrQrBWPQplF39b8UUzf/Zl439b3qYOyAkZFszNnXNVTXmI9MQsK0tti6UbK+WPEzu0MVeI+Dd86xFl0IhbI8vuXevyZTBIn4OTAOJ2gob9kzxirx7zEmuJgekmVr5RR4sMwD0zNlKrICusi3am9gMem0XekxJqzN68iqA5/pkMieElx1HevzjByEstiw4zTCn3Sa8vi47Ch8XQIT8cbGKbMKXlZ5S+dfmvWDDOhRb/VbfIQw7FWc4s3Lpqz1tSAhQXOgp/KPZ/X7DW94AOmqru7VGZQU27ThKNaykks4bRSYak2hmM0KuuZMqBUM3DASjzOQtfvsFnyFYlYhwsPR+ThcMUeuUursuqsN2QTC1rbw2G9tZxHthkOJ8xad9Gqp2y9GYL3sB22hmwdyIXhgVq5tk+BpzJUCW7w1XFeYnWzTksvxdU9nPEyhUFhWqJRO0EvFWTFYhlzDNt6wSxpyROIUm1nzRfNxDDcbIUkS/lhhmLJPNawgrIYfjhYtTVO7l4pq+rAxQGIP9dtj938xOJ1Fj9xWhghRNJV3JtaV92AfQ3jCX0AkK77yduLYMLwu5xoyYeHFk8PwesWl7M65y4yjPr7jIv1xF9Wo0lhkxRejVLDH6gYYL1hWTmKBawKpyR4wDznGoql7pIRGYjVxqkILatsZqsz8rYbwHeX9GOTq1bRykJtxJBEsYaT+LJcLG5lThyvTW9Sgt1VGUC9cuuzzuouN7GG2MXEgMJwKhiF9s3KBU6P1zOcKnir6XUdOT0FzuKD1prPjuzy1FyK++ViVWODFMOQj7sFm4daz1/Vx3AmeT0bDvS8ZkP+e05TwUMYTnFlGpFsiZI+7DB3bGDwmb6trFjb6FXvAGIDU3XNGPdNQqx4xf+QiNXtRVhQxBkmwdcxRXWz/S2hcecmFh+HqZoW/pBtMSrRfm72O4iM0IAzGNmVioxYzfhgmOQ+XT7guFjdyD85LBLLyRQvXH2UOmrrI0PTsuUYXzVzFGvODEhMCE0LjpooG5+0W7EqPkBjJ2bQFHK6YrqIg9VDCzZhfCHySD4bxqHsLBYLNpHyczTFBk/9Yoo6mreaKceM1UFuuSEE82Gq8qCg2Y80rZx4+rRpncDGWxcTnuOFYzEjFlS3gSXM0RfOt9ElvHAIzlkfvbgzk+VYLC/08GL9w1C0UfxVtoJpAyaD5+T78QfMreogWE8yrryMXqPTaGOIo73eS1O2xV6j+XzF9+IGqfE6I5ZxYa3lsrnho8vaPjQ9b9kTq7E9Nmw5aFJMltnKScTieyam3rIbFF4buuqG425cUEf871UdnIIr2L5a500l/WyXEr5DpIge/u5JTVQ3wQnHSul447WkAgpptKqrarfpWX0W3G3zpozVr04mq54IA4xmdTO5zIPv6z8NeeNiyXfzrltg9cJQwZpd5MlTmO+MMb4anF+Kx1q5EqaJo0JZOb7450FZvRb0NnasrJUTnr9Wniy8qBVvnNF8vqlPHuL9dZK1+ujNHXRSs9WFfXanpDWLPvGDNcexe9wPBnvfjD270fD3g8Lg6I6hVEAf1jEbaT7Zid9jiDd9DExL8XlChzjgP5s362SYE9o8DTFN0z3z3WyfrvXFKWXv0zpHGFf345O+EJ6dlYKl0z0vcTE2t9B5SIV0qbQgVikaaq2uq2Ud/Yqz+YUVixnrWY6zaP3GPri8Fyu7eNumyk3HgN5ElFcaGt+OdSNWEWzX57u98YTl9peWwqaPODMc5t7/fAffiMPWPEHVpA5MedTTOZ01ST/DjVj1ZAAsH9mv7r81HCdv4/g9pjzZK+EE7WEis6s/8woJ95u72xXYfqvf7z1duFf7H5Zy/lKG7MLn8al4zsQojce89ja7EQvztkn48NOqeYcPWMTgFHiZrxkvEwRRkdE8sBuxdBvYcOF53j0LJWjyp8E86G/EA2KrB8a2h1vL6jh3tpv7fcLnVB2vN9xMqk0cclkHL0mplVUiyyuxBl+1GeQf4HKzHwlj0v4vB97/OisW7sUKqbgYgN+9b3+HOTPS29l4mDXffvyx+2TIHCNdLMUwazP5+GP3yQyj+XSJhodZd/WYwGdo3mwLVIDCrHfhO2yKSWVZPCZAkcM7eOwp/TCiZooFWeJNeOEm2UcjFcBgd7bz/TM8MA/aQfAgKTUbWpTsvE+XV7lcVVE0vWDyhb2HvHv0B+MwvinIbphiZ1mPUa7zIzzGNkG1fNE93ON/EfIplgfGHh6rF77IQCHWh/RFvf3S+ouXY74Tw6HgiiAIgiAIgiAIgiAIgiAIgiAIgiAIgiAIgiAIgiAIgiAIgiAIgiAIgiAIgiB+kv8A/2LV37CDSqkAAAAASUVORK5CYII=;" vertex="1" parent="RQxE2vT2TZe3DlvVdF_B-91">
          <mxGeometry x="679.46" y="268" width="125" height="70" as="geometry" />
        </mxCell>
        <mxCell id="RQxE2vT2TZe3DlvVdF_B-43" value="" style="image;aspect=fixed;html=1;points=[];align=center;fontSize=12;image=img/lib/azure2/databases/SQL_Database.svg;" vertex="1" parent="RQxE2vT2TZe3DlvVdF_B-91">
          <mxGeometry x="700.0045454545455" y="318" width="85.9090909090909" height="114.54545454545453" as="geometry" />
        </mxCell>
        <mxCell id="RQxE2vT2TZe3DlvVdF_B-104" value="Genera" style="text;html=1;align=center;verticalAlign=middle;resizable=0;points=[];autosize=1;strokeColor=none;fillColor=none;" vertex="1" parent="RQxE2vT2TZe3DlvVdF_B-91">
          <mxGeometry x="160.00363636363636" y="365.27" width="60" height="30" as="geometry" />
        </mxCell>
        <mxCell id="RQxE2vT2TZe3DlvVdF_B-141" style="edgeStyle=orthogonalEdgeStyle;rounded=0;orthogonalLoop=1;jettySize=auto;html=1;" edge="1" parent="RQxE2vT2TZe3DlvVdF_B-91" source="RQxE2vT2TZe3DlvVdF_B-139" target="RQxE2vT2TZe3DlvVdF_B-32">
          <mxGeometry relative="1" as="geometry" />
        </mxCell>
        <mxCell id="RQxE2vT2TZe3DlvVdF_B-139" value="&lt;br&gt;&lt;br&gt;&lt;br&gt;&lt;br&gt;Airbnb.csv" style="rounded=1;whiteSpace=wrap;html=1;" vertex="1" parent="RQxE2vT2TZe3DlvVdF_B-91">
          <mxGeometry x="530" y="510" width="140" height="110" as="geometry" />
        </mxCell>
        <mxCell id="RQxE2vT2TZe3DlvVdF_B-140" value="" style="sketch=0;pointerEvents=1;shadow=0;dashed=0;html=1;strokeColor=none;fillColor=#505050;labelPosition=center;verticalLabelPosition=bottom;verticalAlign=top;outlineConnect=0;align=center;shape=mxgraph.office.users.csv_file;" vertex="1" parent="RQxE2vT2TZe3DlvVdF_B-91">
          <mxGeometry x="570.5" y="530" width="59" height="43" as="geometry" />
        </mxCell>
        <mxCell id="RQxE2vT2TZe3DlvVdF_B-89" value="Google Cloud" style="swimlane;whiteSpace=wrap;html=1;strokeColor=#314354;fillColor=#647687;fontColor=#ffffff;" vertex="1" parent="1">
          <mxGeometry x="63" y="9" width="957" height="771" as="geometry" />
        </mxCell>
        <mxCell id="RQxE2vT2TZe3DlvVdF_B-61" value="Cloud Storage" style="swimlane;whiteSpace=wrap;html=1;" vertex="1" parent="RQxE2vT2TZe3DlvVdF_B-89">
          <mxGeometry x="752.58" y="45" width="190.91" height="175" as="geometry" />
        </mxCell>
        <mxCell id="RQxE2vT2TZe3DlvVdF_B-87" value="" style="dashed=0;outlineConnect=0;html=1;align=center;labelPosition=center;verticalLabelPosition=bottom;verticalAlign=top;shape=mxgraph.webicons.adobe_pdf;fillColor=#F40C0C;gradientColor=#610603" vertex="1" parent="RQxE2vT2TZe3DlvVdF_B-61">
          <mxGeometry x="60.13636363636364" y="47" width="70.63636363636364" height="74" as="geometry" />
        </mxCell>
        <mxCell id="RQxE2vT2TZe3DlvVdF_B-88" value="Guardamos los PDF" style="text;html=1;align=center;verticalAlign=middle;resizable=0;points=[];autosize=1;strokeColor=none;fillColor=none;" vertex="1" parent="RQxE2vT2TZe3DlvVdF_B-61">
          <mxGeometry x="33.409090909090914" y="135" width="130" height="30" as="geometry" />
        </mxCell>
        <mxCell id="RQxE2vT2TZe3DlvVdF_B-46" value="&lt;br&gt;&lt;br&gt;&lt;br&gt;&lt;br&gt;Pedimos los datos de los formularios a Mongodsb y&amp;nbsp;&lt;br&gt;formateamos las tablas a guardar en SQL" style="rounded=1;whiteSpace=wrap;html=1;" vertex="1" parent="RQxE2vT2TZe3DlvVdF_B-89">
          <mxGeometry x="515.4545454545454" y="100" width="152.72727272727272" height="170" as="geometry" />
        </mxCell>
        <mxCell id="RQxE2vT2TZe3DlvVdF_B-142" style="edgeStyle=orthogonalEdgeStyle;rounded=0;orthogonalLoop=1;jettySize=auto;html=1;" edge="1" parent="RQxE2vT2TZe3DlvVdF_B-89" source="RQxE2vT2TZe3DlvVdF_B-55">
          <mxGeometry relative="1" as="geometry">
            <mxPoint x="1017" y="373" as="targetPoint" />
          </mxGeometry>
        </mxCell>
        <mxCell id="RQxE2vT2TZe3DlvVdF_B-55" value="&lt;br&gt;&lt;br&gt;&lt;br&gt;&lt;br&gt;&lt;br&gt;GeneraciÃ³n PDF&lt;br&gt;Integrando Google SendGrid" style="rounded=1;whiteSpace=wrap;html=1;" vertex="1" parent="RQxE2vT2TZe3DlvVdF_B-89">
          <mxGeometry x="777.7636363636362" y="308" width="152.72727272727272" height="130" as="geometry" />
        </mxCell>
        <mxCell id="RQxE2vT2TZe3DlvVdF_B-97" value="Cloud&#xa;Functions" style="sketch=0;html=1;verticalAlign=top;labelPosition=center;verticalLabelPosition=bottom;align=center;spacingTop=-6;fontSize=11;fontStyle=1;fontColor=#999999;shape=image;aspect=fixed;imageAspect=0;image=data:image/svg+xml,PHN2ZyB4bWxucz0iaHR0cDovL3d3dy53My5vcmcvMjAwMC9zdmciIHhtbG5zOnY9Imh0dHBzOi8vdmVjdGEuaW8vbmFubyIgd2lkdGg9IjIwIiBoZWlnaHQ9IjE5Ljk4OTk5OTc3MTExODE2NCIgdmlld0JveD0iMCAwIDIwIDE5Ljk4OTk5OTc3MTExODE2NCI+JiN4YTsJPHN0eWxlIHR5cGU9InRleHQvY3NzIj4mI3hhOwkuc3Qwe2ZpbGw6IzQyODVmNDt9JiN4YTsJLnN0MXtmaWxsOiM2NjlkZjY7fSYjeGE7CS5zdDJ7ZmlsbDojYWVjYmZhO30mI3hhOwk8L3N0eWxlPiYjeGE7CTxwYXRoIGNsYXNzPSJzdDEiIGQ9Ik0zIDMuOTlMMCA2LjQydjcuMTNsMyAyLjQ0eiIvPiYjeGE7CTxwYXRoIGNsYXNzPSJzdDAiIGQ9Ik0zIDMuOTlsLTMgNCAzLTJ6bS0zIDhsMyA0di0yeiIvPiYjeGE7CTxwYXRoIGNsYXNzPSJzdDIiIGQ9Ik0wIDE1Ljk5bDQgNCAyLTItNi02em0uMDEtOEw1Ljk5IDJsLTItMkwwIDMuOTl6Ii8+JiN4YTsJPHBhdGggY2xhc3M9InN0MSIgZD0iTTE3IDE2bDMtMi40MlY2LjQ0TDE3IDR6Ii8+JiN4YTsJPHBhdGggY2xhc3M9InN0MCIgZD0iTTE3IDE2bDMtNC0zIDJ6bTMtOGwtMy00djJ6Ii8+JiN4YTsJPGcgY2xhc3M9InN0MiI+JiN4YTsJCTxwYXRoIGQ9Ik0yMCA0bC00LTQtMiAyIDYgNnptLS4wMSA4bC01Ljk4IDUuOTkgMiAyTDIwIDE2eiIvPiYjeGE7CQk8Y2lyY2xlIGN4PSI2IiBjeT0iOS45OSIgcj0iMSIvPiYjeGE7CQk8Y2lyY2xlIGN4PSIxMCIgY3k9IjkuOTkiIHI9IjEiLz4mI3hhOwkJPGNpcmNsZSBjeD0iMTMuOTkiIGN5PSI5Ljk5IiByPSIxIi8+JiN4YTsJPC9nPiYjeGE7PC9zdmc+;" vertex="1" parent="RQxE2vT2TZe3DlvVdF_B-89">
          <mxGeometry x="834.0818181818181" y="328" width="40.090909090909086" height="32.45454545454545" as="geometry" />
        </mxCell>
        <mxCell id="RQxE2vT2TZe3DlvVdF_B-48" value="Cloud&#xa;Functions" style="sketch=0;html=1;verticalAlign=top;labelPosition=center;verticalLabelPosition=bottom;align=center;spacingTop=-6;fontSize=11;fontStyle=1;fontColor=#999999;shape=image;aspect=fixed;imageAspect=0;image=data:image/svg+xml,PHN2ZyB4bWxucz0iaHR0cDovL3d3dy53My5vcmcvMjAwMC9zdmciIHhtbG5zOnY9Imh0dHBzOi8vdmVjdGEuaW8vbmFubyIgd2lkdGg9IjIwIiBoZWlnaHQ9IjE5Ljk4OTk5OTc3MTExODE2NCIgdmlld0JveD0iMCAwIDIwIDE5Ljk4OTk5OTc3MTExODE2NCI+JiN4YTsJPHN0eWxlIHR5cGU9InRleHQvY3NzIj4mI3hhOwkuc3Qwe2ZpbGw6IzQyODVmNDt9JiN4YTsJLnN0MXtmaWxsOiM2NjlkZjY7fSYjeGE7CS5zdDJ7ZmlsbDojYWVjYmZhO30mI3hhOwk8L3N0eWxlPiYjeGE7CTxwYXRoIGNsYXNzPSJzdDEiIGQ9Ik0zIDMuOTlMMCA2LjQydjcuMTNsMyAyLjQ0eiIvPiYjeGE7CTxwYXRoIGNsYXNzPSJzdDAiIGQ9Ik0zIDMuOTlsLTMgNCAzLTJ6bS0zIDhsMyA0di0yeiIvPiYjeGE7CTxwYXRoIGNsYXNzPSJzdDIiIGQ9Ik0wIDE1Ljk5bDQgNCAyLTItNi02em0uMDEtOEw1Ljk5IDJsLTItMkwwIDMuOTl6Ii8+JiN4YTsJPHBhdGggY2xhc3M9InN0MSIgZD0iTTE3IDE2bDMtMi40MlY2LjQ0TDE3IDR6Ii8+JiN4YTsJPHBhdGggY2xhc3M9InN0MCIgZD0iTTE3IDE2bDMtNC0zIDJ6bTMtOGwtMy00djJ6Ii8+JiN4YTsJPGcgY2xhc3M9InN0MiI+JiN4YTsJCTxwYXRoIGQ9Ik0yMCA0bC00LTQtMiAyIDYgNnptLS4wMSA4bC01Ljk4IDUuOTkgMiAyTDIwIDE2eiIvPiYjeGE7CQk8Y2lyY2xlIGN4PSI2IiBjeT0iOS45OSIgcj0iMSIvPiYjeGE7CQk8Y2lyY2xlIGN4PSIxMCIgY3k9IjkuOTkiIHI9IjEiLz4mI3hhOwkJPGNpcmNsZSBjeD0iMTMuOTkiIGN5PSI5Ljk5IiByPSIxIi8+JiN4YTsJPC9nPiYjeGE7PC9zdmc+;" vertex="1" parent="RQxE2vT2TZe3DlvVdF_B-89">
          <mxGeometry x="570.8181818181818" y="118" width="40.090909090909086" height="32.45454545454545" as="geometry" />
        </mxCell>
        <mxCell id="RQxE2vT2TZe3DlvVdF_B-110" value="" style="shape=image;verticalLabelPosition=bottom;labelBackgroundColor=default;verticalAlign=top;aspect=fixed;imageAspect=0;image=data:image/jpeg,/9j/4AAQSkZJRgABAQAAAQABAAD/2wCEAAkGBxEQEA8RDw8RDw8OEQ4PEBAQEBARDg4OFhIYFxcSFhYZHyohGRsmHxcUIjMiJiwtMDAwGCE1OjUuOSovMC8BCgoKDw4PGxERGzkfISQvLy0tNC0vLy8tLy8vLS8yLy0vLy0tLy0vLS8vLy8tLzEvLy8vLS8vLy8vLy8vLy8vL//AABEIAOsA1gMBIgACEQEDEQH/xAAcAAEAAgMBAQEAAAAAAAAAAAAAAQIEBQcGAwj/xABKEAACAQMAAwoHDAgGAwAAAAAAAQIDBBEFITEGEjJBUVJhcYGRBxMUk6Gx0hUWIkJTVGJydLPR4RczNIKSosHwIyQ1c6OyQ2Nk/8QAGwEBAAIDAQEAAAAAAAAAAAAAAAECAwQFBgf/xAA0EQACAQICBgkDBAMBAAAAAAAAAQIDEQQhBRIxUWGRFDJBcYGhscHhExXwIlKi0SMz8UL/2gAMAwEAAhEDEQA/AO4gAAAAAAAAHyuK8KcXOpKMIR1uUmlFLrZac1FOUnhRTbb2JLazk26PTk7uq3lqlBvxdPiS5zXOfozgzUaLqPcjDWrKmt7PWaR3eUYaqFOVZ86T8XDsysvuR5+73bXk+DKnSX0IJvHXPJ5tsvUtqkY76VKpGHOlCSh3tYOhHD049l+858sRUl227jMr6fu58K6rfuzlBd0cGHUvKsuFWqS+tUm/Wz4NlWzNqpbF5Ixaze1+bLSk3tbZCqNbJNdTaKtlWwQZMNI148GvWj9WpUj6mZlDdPe0+DdVf38VP+6Zp2yGVcIvaiynLf5nr7DwhXMGvGwp1o8erxdR9q1fyntdA7p7e8+DTk41sZdGpqnjjceKS6u3Bxlkxm4tSi3GUWnGUW1KMlsaa2Mw1MNCWzIzQxM47c/zefoIHjtw26l3UfE12vKKaypfLU1q32OctWV055cexObODi7M6UJqSugACpYAAAAAAAAAAAAAAAAAA0e7O4dOxrtbZKFPsnNRl6Gzk7OneEJ/5J/7lL1nMGdLBr9Hic3GdfwPfbgdCU/Fq6qRU5ylJUsrKpxi8OSXObT18i6We1ks6nrT1NcTR5fwfaQhUtVSyvGUHNSjxuMpOSl1a2uw9UaWIbdR3/EbuHSVNWOX7vNCQt6kKtKKjTrb7MVqjCqsbORNPZxYZ5Vs9v4TNIRlKlQi05U99UqY+K2sRj14y+7lPDNnRoNumrnNrpKo0g2VbDZRmYxBsqyWVYJDIbDZVsgGRo2/lb1qVaHCpTU8c5fGj1NZXad7pVFOMZReYzSlF8qaymfnlnd9zUs2Vm3tdtb/AHcTSxiVk/A3sG9qNmADRN0AAAAAAAAAAAAAAAAAA8z4Qv2J/wC7S9bOXNnU93dCdS0cacJ1JeMpvewjKcsZ24Ws509DXXzW48zV9k6WEa+n4nOxcW6mS7DFtbqpSmqlOcoTjslF4fV0roNvV3ZX0o73x2OJyjTpxm+3GrswYD0LdfNbjzFX2Sr0Ld/NLjzNX2TNJQlm7PkYI/UWSuuZgzm225NylJtttttt7W3xso2Z70Ld/NLnzFX2SHoS7+aXPmKvsl9Zbyv05bvI1zZDM6ehrlJt2tdJJtt0aiSS2tve6ka9sJp7A01tDZDZLZVsEBso2GyrYJDZ3bcv+w2f2a3+6icHbO8blv2Gy+zW/wB3E08b1V3m5hNrNqADQN4AAAAAAAAAAGl3Q6fp2cE5fDqTT3lNPDf0m+KJMYuTsiJSUVdm3nJRTcmopa228JLpZprndVZU3h14yf8A64yqLvimvSc30tpitcyzVqNrOY01qpQ6o/1eX0mvZvQwa2yfI0Z41/8Alczp73cWfOqeakV9/NnzqvmmcwbKtmTodPiY+l1OB1H392XOqeaZHv7sudU81I5c2VbHQ6fEdLqcDqfv8sudV80yPf7Zc6r5pnKmyrZHRKfEnpdTgdX9/wBZc6r5qRHv/sedV81I5QyrHRKfEdLqcDqOkN3NlOlVhGVTfTp1IRzSklvnFpHLQ2VbMtOlGn1TFUqyntDZRslsq2ZChDZVslsq2AQ2d53LvFhZv/5bd/8AFE4Kd43M/wCn2n2Wh90jSxvVTNzB9Zmf5bD+0PLYGuB5BaUr8OXydn6ETY+WQ5X3M+0Jp7GmagRm08p4aLw0rUT/AFxTXDJ+bZDoLsZugY1pcb5a9q2mSdunUjUipRzTNZpp2YABcgxNI3kaFKdWfBpxcnyvkiulvC7TkGkr6derOpUeZzeeiK4oroR7Twk3jUKNFP8AWSlUn9WOqKfa2/3TwLOlhKdo62/0Obi6l5au71DKtktlWzbNQhsq2S2Q2AQ2Q2GyrZBIbKMMqwSGQw2Q2AGyjYbKtkEhsq2GyrYAbKhgAHeNzP8Ap9p9lofdI4Od53ORxYWie1WlvnzUTRx3U5+huYPrMoRkEZPn/Yd8EZGSCpYvSqb2SkuLb08puU+NGhybawqb6C6Mr+/QdfRFa0pU325r39uRr4iGSkZQAO8ahy3d7c7+9muKlCnSXdv3/wB/QecbM/Tlbf3VxLlrVcfVU2l6EjXNnapq0EuBxajvNviGyrYbIbLlA2VbDZVsgkNlGyWyrBIZVsMNgENlWyWyjZAIbKtktlWwSGyrYbIAAAS73qS42+QgGTo2xlcVqVCHCqzjTX0U9supLL7DvldKFLex1JRjCK5EljHceR8Hu5OVsvKbiOK9SO9p03to03tb5Jv0LVxtHpL2vvpYWyPp6ThaXxihTdnvS73/AF+bTq4Gg1m/xGPkjIyRk8YdgEZBUqSSZ2ip65x6EzXmVo6WKiXLvvVn+hs4Cpq4iHfbnl7lK0bwZuQAevOccLrT30pPnSk+95Pm2WrR3spLmuS7ngo2dw4YbKthsq2AGyjZLZRgBshkpNtJJttpJJNtt6kkuNnR9y24WEFGrexVSo8ONF66dP6/Pl0bF07THUqxpq7MlOm5uyPC6O0Lc3OuhQnUjz8KMP45YXpN7T8Hd7JZcqMOiVSef5Ys6fO4hH4K4tSS2LoPi758UV3nHraYpwla6XNnRp4BWzz8jnL8G958rbecq+wV/Rte/K23nK3sHSPLpc31jy6XN9Zh++U9/wDFmT7et3mc2/RrefK23nKvsFX4NL35W285W9g6X5dLm+seXS5vrH3ynv8A4sdAW7zOZ/ozvflbbzlb2B+jO9+VtvOVvYOl+Xy5vrHl8ub6yPvtPf8AxZPQFu8znVr4MLhv/FuKMFy01Oq+5qJ7DQG461smppOrVj/5auG4fVWyPXt6TZyvpcSS7zGq1pS4Tb/vkNevpyLVo3fkv78jJTwKi729zKu7zPwYbON/gYORkg87XrzrS1p/C7joQgoqyGSAQa5cZIBGStywPtZy/wASHWvTqPhk+ln+sh9ZesvRf+SHevUiSyZ6EAHuDknFNO0t5c3MObWq4+rv216MGvbPRbv7beX1V8VWFKqv4d4/TBnnGzs03eKfA41RWk1xIbKtktlGXKBlWGSottKKzKTSS5ZPUkAe98GugU83lWOcOUKCezK1Sq+uK6pdB7i7uPix7WLK2jb0KdOPBowjBdLSxl9b19phHk9L4yXVi9vp8/2d/CUFGPd6gAHnTeABGQCSMkEZIuTYnJGSMkZK3JsSVyMkFbkgjIIKFgQCMlSRkjIyRkrckZMjRyzVh0Z9CZi5NjoWGZSlyau1v8jYwMNfEU48U+WfsUrPVg2bgAHtjlHgvCjZ/Bt66XBc6Mv3lvo+qXec+bO26c0crm3q0Xq8ZH4Mn8Wa1xl2NI4ncUpU5ShOLjOEnCUXtjJPDR0sJO8NXcc3FwtPW3nzbIYZVm0awbMzQizdWqex3FBdnjImE2Zugv2u0+0W/wB5ErLYy0Osjt99wH2GuNjf8A1x4TSf+7wXqz0lHqgAg5xmGSMjJXJVsmxOSMkEZK3JsSRkgjJW5YEAgo2SkSRkjJGSpIyRkZIyVbLDJGSSCrZJBvdF0t7TWdsvhPt/LBp7Shv5xjxPX1I9Kd3QlC8pVn2fpXvy2eLNTFzyUQAD0hoA8Xu33KO4zXt0vHpYnDUlWilqafOWzpXUj2gLwm4O6KTgpqzPz9VhKEnGcXCcXiUZJxlF8jT1oo2dx0poS3ul/j0YVGlhT1xqJcinHDS7TQ1fB1ZyeVO4guSNSLX80Wzeji4tZ5GjLCT7HfyOVNmZoF/5u0+02/3sTo36N7P5W5/jpewfS28H1rTnTqRqV99TqQqxTlT3u+hJSSfwNmoPFU2mvYRw0008uZ6e/wCB3GtybLSHANZk8ZpT/f4L3O7R6oIyMkHMM4yQRkgq2SSQTBZaXKbP3Oh095sYfB1a6bhbLe/gpOpGG01RBtfc6HLLvQ9zYfT7/wAjO9EYjhz+CqxEPxGpyRk23uZD6fevwHuZDln3r8CPs+I4c/gnpNP8RqMlcm49y6fLLvX4D3Lp8s+/8iv2fE8OfwT0mn+I02SDde5VP6XevwHuTT5Zd6/Aj7NieHP4J6VTNKTCLbSSy3sS2s3K0VT6X14/AyaNvCHBil/UvS0JWb/XJJcM36W8fIrLFxtkrny0daeLjr4T29XIZgB6WjSjSgoQySNGUnJ3YABkKgAAAAAAAAGLpHgPrRq8m00h+rfYarJ5vSz/AM/gvc3cP1RkjIyVOWZySCAVuWCeNm1H18qqc9958clckxqzj1W13Nr0DintPv5XU577yPK6nPfefDISbeEm29iWtsdIq/vfNjUjuPt5ZU577x5ZU+UfeJWNVLO87mm+4xialTEQ67ku9yXqTGMHss+R9/LKnyj7ze2zbhBvW3FNvleDzZ6S0/V0/qQ9R1dCVJznPWbeS2tvt4s1sXFKKsu0+wAPRmiAAAAAAAAAAAAAAAAAAYmkf1b60ak3dzDfQlHja/M0bPN6Yi1VUuxr0fyjdwzvFoZIBGTkXNoEZGSMlWyRkjJGSMlGybE5NvoiklBT+NPOvkw8Y9BpjbaIrre+Le1N46U9f4nS0Q4LErW3O3fl52vYwYpPUyNoafTNBJxmtWeF0viNwaTS1ypNRi8qOW3xZ5Dt6YcFhpKfh3/8vfhc1MMn9RWMA9JbcCH1Ieo87SpuclFbW/7Z6aMcJJbEkl1HP0DB3nPsyXjtM+MeSRYAHozRAAAAAAAAAAAAAAAAAABrr6zzmcFr+MuU2IMOIw8K0NSfynvX5weRaE3F3R5tlcm9uLSE9q18qNfV0ZNcFqfoPM4jRdem/wBK11w28tvK5vwxEJbcjBIyXqUZR4UWuvPrPmcud4u0lZ8TYWewnJAIKXLAA+tO2qS4MG+n82TCDqO0Vrdyv6Bu23Iq682sOTa5G9RSEW2kllvYltNjR0TJ8OSS5Fr9JsqFtGC+CscvG2dehonEVneq9VcXd8uzx2cTVniYRyjmY+j7LxazLXN9yRngHpqNGFGChBWSNCc3J3YABlKgAAAAAAAAAAAAAAAAAAAAAAAA+U6MXtin2ZPqA1fJgx/IqfMQ8jp8xesyAYvoUv2Lkv6La8t584U1HYkupJH0AMqyVioAAAAAAAAAAAAAAAAAAAAAAAAAAABDKMAvkrvz5sqwD6+MHjD4sgA+3jB4w+AAMjxg8YfAlAH335bJ8EWQB9gfNF0ASAAAAAAAAAAAD//Z;" vertex="1" parent="RQxE2vT2TZe3DlvVdF_B-89">
          <mxGeometry x="890.0027272727273" y="319.91" width="26.078181818181818" height="28.636363636363633" as="geometry" />
        </mxCell>
        <mxCell id="RQxE2vT2TZe3DlvVdF_B-7" value="" style="group" vertex="1" connectable="0" parent="RQxE2vT2TZe3DlvVdF_B-89">
          <mxGeometry x="97" y="21" width="330" height="190" as="geometry" />
        </mxCell>
        <mxCell id="RQxE2vT2TZe3DlvVdF_B-105" value="Google Compute Engine" style="swimlane;whiteSpace=wrap;html=1;" vertex="1" parent="RQxE2vT2TZe3DlvVdF_B-7">
          <mxGeometry x="-35" y="20.92" width="365" height="200" as="geometry" />
        </mxCell>
        <mxCell id="RQxE2vT2TZe3DlvVdF_B-11" value="&lt;br&gt;Formularios" style="shape=cylinder3;whiteSpace=wrap;html=1;boundedLbl=1;backgroundOutline=1;size=15;" vertex="1" parent="RQxE2vT2TZe3DlvVdF_B-105">
          <mxGeometry x="234.4" y="49.08" width="100" height="130" as="geometry" />
        </mxCell>
        <mxCell id="RQxE2vT2TZe3DlvVdF_B-14" value="" style="dashed=0;outlineConnect=0;html=1;align=center;labelPosition=center;verticalLabelPosition=bottom;verticalAlign=top;shape=mxgraph.weblogos.mongodb" vertex="1" parent="RQxE2vT2TZe3DlvVdF_B-105">
          <mxGeometry x="273.79999999999995" y="77.82" width="21.2" height="44.36" as="geometry" />
        </mxCell>
        <mxCell id="RQxE2vT2TZe3DlvVdF_B-8" value="" style="group" vertex="1" connectable="0" parent="RQxE2vT2TZe3DlvVdF_B-105">
          <mxGeometry x="55.00090909090909" y="35" width="124.0909090909091" height="130" as="geometry" />
        </mxCell>
        <mxCell id="RQxE2vT2TZe3DlvVdF_B-109" style="edgeStyle=orthogonalEdgeStyle;rounded=0;orthogonalLoop=1;jettySize=auto;html=1;" edge="1" parent="RQxE2vT2TZe3DlvVdF_B-8" source="RQxE2vT2TZe3DlvVdF_B-6">
          <mxGeometry relative="1" as="geometry">
            <mxPoint x="175.9090909090909" y="77.0454545454545" as="targetPoint" />
          </mxGeometry>
        </mxCell>
        <mxCell id="RQxE2vT2TZe3DlvVdF_B-6" value="" style="ellipse;whiteSpace=wrap;html=1;aspect=fixed;" vertex="1" parent="RQxE2vT2TZe3DlvVdF_B-8">
          <mxGeometry y="15" width="124.0909090909091" height="124.0909090909091" as="geometry" />
        </mxCell>
        <mxCell id="RQxE2vT2TZe3DlvVdF_B-5" value="Web" style="verticalLabelPosition=bottom;aspect=fixed;html=1;shape=mxgraph.salesforce.web;" vertex="1" parent="RQxE2vT2TZe3DlvVdF_B-8">
          <mxGeometry x="33.409090909090914" y="36.30000000000001" width="57.272727272727266" height="45.24545454545455" as="geometry" />
        </mxCell>
        <mxCell id="RQxE2vT2TZe3DlvVdF_B-49" style="edgeStyle=orthogonalEdgeStyle;rounded=0;orthogonalLoop=1;jettySize=auto;html=1;entryX=1;entryY=0.5;entryDx=0;entryDy=0;entryPerimeter=0;" edge="1" parent="RQxE2vT2TZe3DlvVdF_B-89" source="RQxE2vT2TZe3DlvVdF_B-46" target="RQxE2vT2TZe3DlvVdF_B-11">
          <mxGeometry relative="1" as="geometry">
            <Array as="points">
              <mxPoint x="567" y="124" />
            </Array>
          </mxGeometry>
        </mxCell>
        <mxCell id="RQxE2vT2TZe3DlvVdF_B-107" style="edgeStyle=orthogonalEdgeStyle;rounded=0;orthogonalLoop=1;jettySize=auto;html=1;" edge="1" parent="RQxE2vT2TZe3DlvVdF_B-89">
          <mxGeometry relative="1" as="geometry">
            <mxPoint x="117" y="150.45" as="targetPoint" />
            <mxPoint x="-23" y="150.5166666666666" as="sourcePoint" />
          </mxGeometry>
        </mxCell>
        <mxCell id="RQxE2vT2TZe3DlvVdF_B-17" value="" style="group;rotation=90;" vertex="1" connectable="0" parent="RQxE2vT2TZe3DlvVdF_B-89">
          <mxGeometry x="6.996363636363633" y="288" width="163.0872727272727" height="150" as="geometry" />
        </mxCell>
        <mxCell id="RQxE2vT2TZe3DlvVdF_B-121" style="edgeStyle=orthogonalEdgeStyle;rounded=0;orthogonalLoop=1;jettySize=auto;html=1;exitX=1;exitY=0.5;exitDx=0;exitDy=0;" edge="1" parent="RQxE2vT2TZe3DlvVdF_B-17" source="RQxE2vT2TZe3DlvVdF_B-16">
          <mxGeometry relative="1" as="geometry">
            <mxPoint x="180.00363636363636" y="72" as="targetPoint" />
          </mxGeometry>
        </mxCell>
        <mxCell id="RQxE2vT2TZe3DlvVdF_B-16" value="&lt;br&gt;&lt;br&gt;&lt;br&gt;&lt;br&gt;&lt;br&gt;Schedule Task&lt;br&gt;1 vez a la semana" style="whiteSpace=wrap;html=1;aspect=fixed;" vertex="1" parent="RQxE2vT2TZe3DlvVdF_B-17">
          <mxGeometry width="143.1818181818182" height="143.1818181818182" as="geometry" />
        </mxCell>
        <mxCell id="RQxE2vT2TZe3DlvVdF_B-15" value="" style="image;aspect=fixed;html=1;points=[];align=center;fontSize=12;image=img/lib/azure2/general/Scheduler.svg;" vertex="1" parent="RQxE2vT2TZe3DlvVdF_B-17">
          <mxGeometry x="38.18181818181819" y="20" width="64.9090909090909" height="64.9090909090909" as="geometry" />
        </mxCell>
        <mxCell id="RQxE2vT2TZe3DlvVdF_B-134" value="" style="endArrow=classic;startArrow=classic;html=1;rounded=0;exitX=0.5;exitY=0;exitDx=0;exitDy=0;" edge="1" parent="RQxE2vT2TZe3DlvVdF_B-89" source="RQxE2vT2TZe3DlvVdF_B-55">
          <mxGeometry width="50" height="50" relative="1" as="geometry">
            <mxPoint x="805.23" y="270" as="sourcePoint" />
            <mxPoint x="855.23" y="220" as="targetPoint" />
          </mxGeometry>
        </mxCell>
        <mxCell id="RQxE2vT2TZe3DlvVdF_B-125" style="edgeStyle=orthogonalEdgeStyle;rounded=0;orthogonalLoop=1;jettySize=auto;html=1;entryX=0;entryY=0.75;entryDx=0;entryDy=0;" edge="1" parent="1" source="RQxE2vT2TZe3DlvVdF_B-16" target="RQxE2vT2TZe3DlvVdF_B-26">
          <mxGeometry relative="1" as="geometry" />
        </mxCell>
        <mxCell id="RQxE2vT2TZe3DlvVdF_B-126" style="edgeStyle=orthogonalEdgeStyle;rounded=0;orthogonalLoop=1;jettySize=auto;html=1;entryX=0;entryY=0.75;entryDx=0;entryDy=0;" edge="1" parent="1" source="RQxE2vT2TZe3DlvVdF_B-16" target="RQxE2vT2TZe3DlvVdF_B-22">
          <mxGeometry relative="1" as="geometry" />
        </mxCell>
        <mxCell id="RQxE2vT2TZe3DlvVdF_B-127" style="edgeStyle=orthogonalEdgeStyle;rounded=0;orthogonalLoop=1;jettySize=auto;html=1;entryX=0;entryY=0.75;entryDx=0;entryDy=0;" edge="1" parent="1" source="RQxE2vT2TZe3DlvVdF_B-16" target="RQxE2vT2TZe3DlvVdF_B-24">
          <mxGeometry relative="1" as="geometry" />
        </mxCell>
        <mxCell id="RQxE2vT2TZe3DlvVdF_B-135" style="edgeStyle=orthogonalEdgeStyle;rounded=0;orthogonalLoop=1;jettySize=auto;html=1;entryX=0.004;entryY=0.574;entryDx=0;entryDy=0;entryPerimeter=0;" edge="1" parent="1" source="RQxE2vT2TZe3DlvVdF_B-43" target="RQxE2vT2TZe3DlvVdF_B-55">
          <mxGeometry relative="1" as="geometry" />
        </mxCell>
        <mxCell id="RQxE2vT2TZe3DlvVdF_B-66" value="Usuario" style="shape=umlActor;verticalLabelPosition=bottom;verticalAlign=top;html=1;outlineConnect=0;fillColor=#647687;fontColor=#ffffff;strokeColor=#314354;" vertex="1" parent="1">
          <mxGeometry x="1088.229090909091" y="340" width="28.636363636363633" height="60" as="geometry" />
        </mxCell>
        <mxCell id="RQxE2vT2TZe3DlvVdF_B-68" value="Envio de pdf personalizado&lt;br&gt;al usuario" style="text;html=1;align=center;verticalAlign=middle;resizable=0;points=[];autosize=1;strokeColor=none;fillColor=none;" vertex="1" parent="1">
          <mxGeometry x="1010.800909090909" y="404.99999999999994" width="170" height="40" as="geometry" />
        </mxCell>
        <mxCell id="RQxE2vT2TZe3DlvVdF_B-74" value="" style="shape=mxgraph.signs.tech.mail;html=1;pointerEvents=1;fillColor=#000000;strokeColor=none;verticalLabelPosition=bottom;verticalAlign=top;align=center;" vertex="1" parent="1">
          <mxGeometry x="1081.9972727272727" y="445" width="37.800000000000004" height="30" as="geometry" />
        </mxCell>
      </root>
    </mxGraphModel>
  </diagram>
</mxfile>
